<!-- icon666.com - MILLIONS vector ICONS FREE --><svg fill="none" viewBox="0 0 24 24" xmlns="http://www.w3.org/2000/svg" xmlns:xlink="http://www.w3.org/1999/xlink"><linearGradient id="paint0_linear_1_2230" gradientUnits="userSpaceOnUse" x1="12" x2="12" y1="2.25" y2="21.75"><stop offset="0" stop-color="#ff512f"></stop><stop offset="1" stop-color="#dd2476"></stop></linearGradient><path clip-rule="evenodd" d="m12 3.75c-2.11495 0-5.0055.19409-6.81042.33392-.59357.04599-1.05967.51209-1.10566 1.10566-.13983 1.80492-.33392 4.69547-.33392 6.81042 0 2.115.19409 5.0055.33392 6.8104.04599.5936.51208 1.0597 1.10566 1.1057 1.80492.1398 4.69547.3339 6.81042.3339 2.115 0 5.0055-.1941 6.8104-.3339.5936-.046 1.0597-.5121 1.1057-1.1057.1398-1.8049.3339-4.6954.3339-6.8104 0-2.11495-.1941-5.0055-.3339-6.81042-.046-.59358-.5121-1.05967-1.1057-1.10566-1.8049-.13983-4.6954-.33392-6.8104-.33392zm-6.92628-1.1616c1.80576-.13989 4.74761-.3384 6.92628-.3384 2.1787 0 5.1205.19851 6.9263.3384 1.3306.10309 2.3822 1.15473 2.4853 2.48532.1399 1.80576.3384 4.74761.3384 6.92628 0 2.1787-.1985 5.1205-.3384 6.9263-.1031 1.3306-1.1547 2.3822-2.4853 2.4853-1.8058.1399-4.7476.3384-6.9263.3384-2.17867 0-5.12052-.1985-6.92628-.3384-1.3306-.1031-2.38223-1.1547-2.48532-2.4853-.13989-1.8058-.3384-4.7476-.3384-6.9263 0-2.17867.19851-5.12052.3384-6.92628.10309-1.3306 1.15473-2.38223 2.48532-2.48532zm2.4324 8.3472 3.99998-3.50003c.2828-.24743.705-.24743.9878 0l4 3.50003c.3117.2727.3433.7466.0705 1.0583-.2727.3117-.7466.3433-1.0583.0705l-2.7561-2.41157v6.34717c0 .4142-.3358.75-.75.75s-.75-.3358-.75-.75v-6.34717l-2.75612 2.41157c-.31173.2728-.78555.2412-1.05831-.0705s-.24118-.7856.07055-1.0583z" fill="url(#paint0_linear_1_2230)" fill-rule="evenodd"></path></svg>