<svg width="1210" height="958" xmlns="http://www.w3.org/2000/svg">
 <g>
  <title>background</title>
  <rect x="-1" y="-1" width="1212" height="960" id="canvas_background" fill="none"/>
 </g>

 <g>
  <title>Layer 1</title>
  <g id="svg_1">
   <path fill="#00d3d3" d="m606.94809,0c17.957,1.067 35.957,1.9 54,2.5c8.962,2.408 12.462,8.241 10.5,17.5c-1.5,3.5 -4,6 -7.5,7.5c-14.662,0.056 -29.329,-0.111 -44,-0.5c0.123,7.029 -0.21,14.029 -1,21c14.714,0.224 29.381,1.057 44,2.5c5.119,2.34 7.452,6.34 7,12c0.069,5.872 -2.598,9.872 -8,12c-14.663,0.109 -29.33,-0.058 -44,-0.5c-0.33,6.7 0.003,13.366 1,20c13.633,0.873 27.3,1.706 41,2.5c8.559,4.343 10.725,10.843 6.5,19.5c-1.543,1.878 -3.376,3.378 -5.5,4.5c-20.7,0.419 -41.367,-0.248 -62,-2c-2.124,-1.122 -3.957,-2.622 -5.5,-4.5c-1.121,-5.561 -1.621,-11.227 -1.5,-17c0.911,-29.011 2.077,-58.011 3.5,-87c1.808,-5.8 5.641,-9.133 11.5,-10z" opacity="0.965" id="svg_2"/>
  </g>
  <g id="svg_3">
   <path fill="#00d3d3" d="m529.94809,4c14.321,-2.178 20.487,3.822 18.5,18c-1.587,3.256 -4.087,5.423 -7.5,6.5c-13.712,2.642 -27.378,5.476 -41,8.5c2.31,8.883 3.977,17.883 5,27c13.519,-2.17 27.019,-4.503 40.5,-7c11.311,1.61 15.311,7.943 12,19c-1.251,2.881 -3.417,4.714 -6.5,5.5c-13.232,3.08 -26.565,5.58 -40,7.5c1.125,9.748 2.791,19.415 5,29c-1.327,10.002 -6.994,14.168 -17,12.5c-4.167,-1.5 -7,-4.333 -8.5,-8.5c-5.667,-29.667 -11.333,-59.333 -17,-89c-3.056,-9.72 0.111,-16.22 9.5,-19.5c15.863,-2.872 31.529,-6.039 47,-9.5z" opacity="0.965" id="svg_4"/>
  </g>
  <g id="svg_5">
   <path fill="#00d2d2" d="m417.94809,31c5.795,0.304 9.962,2.971 12.5,8c9.667,29.667 19.333,59.333 29,89c2.445,10.049 -1.389,16.049 -11.5,18c-5.313,-0.571 -9.147,-3.237 -11.5,-8c-9.667,-29.667 -19.333,-59.333 -29,-89c-2.366,-9.618 1.134,-15.618 10.5,-18z" opacity="0.962" id="svg_6"/>
  </g>
  <g id="svg_7">
   <path fill="#00d2d2" d="m850.94809,66c-7.9,2.961 -15.57,6.295 -23,10c-1.64,-5.111 -4.64,-9.278 -9,-12.5c-10.42,-4.873 -17.09,-1.873 -20,9c0.49,2.819 1.66,5.319 3.5,7.5c1.99,0.828 3.49,2.161 4.5,4c-8.3,2.821 -16.3,6.155 -24,10c-12.77,-16.769 -11.43,-32.602 4,-47.5c12.81,-8.013 26.48,-9.679 41,-5c10.97,5.133 18.63,13.3 23,24.5z" opacity="0.968" id="svg_8"/>
  </g>
  <g id="svg_9">
   <path fill="#00d3d3" d="m710.94809,52c14.48,-1.018 20.98,5.649 19.5,20c-5.29,10.223 -13.128,12.723 -23.5,7.5c-6.099,-5.743 -7.599,-12.577 -4.5,-20.5c2.464,-2.981 5.297,-5.314 8.5,-7z" opacity="0.944" id="svg_10"/>
  </g>
  <g id="svg_11">
   <path fill="#0ad3c2" d="m850.94809,66c2.82,7.314 2.66,14.647 -0.5,22c-7.99,5.789 -14.66,4.456 -20,-4c-1.14,-2.596 -1.97,-5.263 -2.5,-8c7.43,-3.705 15.1,-7.039 23,-10z" opacity="0.979" id="svg_12"/>
  </g>
  <g id="svg_13">
   <path fill="#00d2d2" d="m307.94809,78c4.936,-0.189 9.102,1.477 12.5,5c12.333,25.333 24.667,50.667 37,76c15.756,-8.296 31.923,-15.629 48.5,-22c11.767,2.877 14.934,9.877 9.5,21c-19.602,10.217 -39.435,20.051 -59.5,29.5c-5.822,1.503 -10.655,0.003 -14.5,-4.5c-14.333,-29.333 -28.667,-58.667 -43,-88c-1.958,-8.681 1.209,-14.348 9.5,-17z" opacity="0.962" id="svg_14"/>
  </g>
  <g id="svg_15">
   <path fill="#1ed598" d="m921.94809,88c-9.17,4.057 -18.5,7.724 -28,11c-12.19,-5.752 -14.19,-13.919 -6,-24.5c3.91,-1.434 7.91,-1.767 12,-1c7.51,4.696 14.84,9.53 22,14.5z" opacity="0.986" id="svg_16"/>
  </g>
  <g id="svg_17">
   <path fill="#0ad4bf" d="m806.94809,84c6.23,3.275 11.9,7.275 17,12c-8.43,4.039 -17.1,7.705 -26,11c-4.04,-1.862 -7.71,-4.362 -11,-7.5c-1.94,-1.432 -3.27,-3.265 -4,-5.5c7.7,-3.845 15.7,-7.179 24,-10z" opacity="0.992" id="svg_18"/>
  </g>
  <g id="svg_19">
   <path fill="#2ad67f" d="m921.94809,88c6.38,3.517 12.38,7.517 18,12c-9.3,4.474 -18.96,8.141 -29,11c-5.67,-4 -11.33,-8 -17,-12c9.5,-3.276 18.83,-6.943 28,-11z" opacity="0.982" id="svg_20"/>
  </g>
  <g id="svg_21">
   <path fill="#0ad3be" d="m778.94809,116c-8.18,2.09 -16.18,4.757 -24,8c-3.6,-7.817 -2.27,-14.65 4,-20.5c11.33,-3.533 17.99,0.634 20,12.5z" opacity="0.996" id="svg_22"/>
  </g>
  <g id="svg_23">
   <path fill="#19d5a2" d="m823.94809,96c7.4,4.74 12.07,11.406 14,20c-7.79,3.56 -15.79,6.56 -24,9c0.2,-2.489 -0.3,-4.823 -1.5,-7c-4.99,-3.566 -9.82,-7.232 -14.5,-11c8.9,-3.295 17.57,-6.961 26,-11z" opacity="0.988" id="svg_24"/>
  </g>
  <g id="svg_25">
   <path fill="#36d768" d="m939.94809,100c5.24,2.575 10.24,5.575 15,9c-0.56,1.29 -1.56,2.123 -3,2.5c-9.11,3.39 -18.11,7.057 -27,11c-8.83,3.755 -17.83,6.922 -27,9.5c4.59,-6.86 8.93,-13.86 13,-21c10.04,-2.859 19.7,-6.526 29,-11z" opacity="0.992" id="svg_26"/>
  </g>
  <g id="svg_27">
   <path fill="#3dd85a" d="m954.94809,109c3.21,1.765 6.21,3.765 9,6c-8.88,4.275 -17.88,8.275 -27,12c-1.39,-1.114 -2.89,-2.114 -4.5,-3c-4.19,6.399 -8.36,12.732 -12.5,19c-0.75,-1.073 -1.75,-1.24 -3,-0.5c-11.24,4.79 -22.58,9.29 -34,13.5c5,-8 10,-16 15,-24c9.17,-2.578 18.17,-5.745 27,-9.5c8.89,-3.943 17.89,-7.61 27,-11c1.44,-0.377 2.44,-1.21 3,-2.5z" opacity="0.987" id="svg_28"/>
  </g>
  <g id="svg_29">
   <path fill="#46d849" d="m963.94809,115c9.37,3.747 12.54,10.414 9.5,20c-3.82,5.541 -8.99,7.374 -15.5,5.5c-7.15,-4.329 -14.15,-8.829 -21,-13.5c9.12,-3.725 18.12,-7.725 27,-12z" opacity="0.994" id="svg_30"/>
  </g>
  <g id="svg_31">
   <path fill="#24d68c" d="m837.94809,116c1.3,5.234 1.3,10.567 0,16c-17.99,6.993 -35.99,13.993 -54,21c-5.79,-1.728 -10.79,-4.728 -15,-9c9.63,-3.488 18.97,-7.488 28,-12c3.68,0.165 7.35,-0.001 11,-0.5c2.89,-1.385 4.89,-3.551 6,-6.5c8.21,-2.44 16.21,-5.44 24,-9z" opacity="0.993" id="svg_32"/>
  </g>
  <g id="svg_33">
   <path fill="#1bd4a0" d="m778.94809,116c3.2,8.534 9.2,13.867 18,16c-9.03,4.512 -18.37,8.512 -28,12c-6.63,-5.259 -11.3,-11.925 -14,-20c7.82,-3.243 15.82,-5.91 24,-8z" opacity="0.974" id="svg_34"/>
  </g>
  <g id="svg_35">
   <path fill="#2cd77a" d="m837.94809,132c-6.53,16.363 -18.7,24.696 -36.5,25c-6.26,-0.014 -12.09,-1.348 -17.5,-4c18.01,-7.007 36.01,-14.007 54,-21z" opacity="0.983" id="svg_36"/>
  </g>
  <g id="svg_37">
   <path fill="#00d2d2" d="m201.94809,153c16.273,-0.773 21.107,6.227 14.5,21c-6,6 -12,12 -18,18c-0.667,1 -0.667,2 0,3c20.692,19.693 41.025,39.693 61,60c2.389,9.911 -1.277,15.911 -11,18c-2.634,-0.434 -5.134,-1.267 -7.5,-2.5c-20.182,-19.682 -40.515,-39.182 -61,-58.5c-6.773,6.695 -13.439,13.528 -20,20.5c-14.091,5.213 -20.591,0.38 -19.5,-14.5c0.667,-1.333 1.333,-2.667 2,-4c19.728,-20.56 39.561,-40.893 59.5,-61z" opacity="0.963" id="svg_38"/>
  </g>
  <g id="svg_39">
   <path fill="#00d2d2" d="m270.94809,155c16.663,0.326 22.163,8.326 16.5,24c-6.56,7.246 -14.06,8.412 -22.5,3.5c-4.702,-4.922 -6.202,-10.755 -4.5,-17.5c2.106,-4.943 5.606,-8.276 10.5,-10z" opacity="0.946" id="svg_40"/>
  </g>
  <g id="svg_41">
   <path fill="#4cd93e" d="m919.94809,143c-5.18,9.045 -10.85,17.712 -17,26c-0.06,-0.543 -0.39,-0.876 -1,-1c-11.58,4.956 -23.24,9.623 -35,14c4.83,-9.009 10.17,-17.676 16,-26c11.42,-4.21 22.76,-8.71 34,-13.5c1.25,-0.74 2.25,-0.573 3,0.5z" opacity="0.998" id="svg_42"/>
  </g>
  <g id="svg_43">
   <path fill="#83e103" d="m972.94809,222c0.13,-0.739 -0.04,-1.406 -0.5,-2c-10.22,4.239 -20.39,8.572 -30.5,13c0.71,-10.079 4.21,-19.079 10.5,-27c17.17,-16.5 34.33,-33 51.5,-49.5c12.97,-2.932 19.14,2.235 18.5,15.5c-0.67,1.333 -1.33,2.667 -2,4c-16.01,15.173 -31.84,30.506 -47.5,46z" opacity="0.984" id="svg_44"/>
  </g>
  <g id="svg_45">
   <path fill="#57d927" d="m902.94809,169c-4.56,8.111 -9.39,16.111 -14.5,24c-6.39,7.192 -13.39,7.859 -21,2c-3,-4.387 -3.17,-8.72 -0.5,-13c11.76,-4.377 23.42,-9.044 35,-14c0.61,0.124 0.94,0.457 1,1z" opacity="0.938" id="svg_46"/>
  </g>
  <g id="svg_47">
   <path fill="#fdfd00" d="m702.94809,217c4.621,-0.507 8.954,0.326 13,2.5c1.817,1.8 2.984,3.966 3.5,6.5c2.53,23.163 5.03,46.33 7.5,69.5c-2.41,11.697 -9.074,15.031 -20,10c-3.212,-2.731 -4.712,-6.231 -4.5,-10.5c-2.313,-21.486 -4.48,-42.986 -6.5,-64.5c-0.679,-6.144 1.654,-10.644 7,-13.5z" opacity="0.964" id="svg_48"/>
  </g>
  <g id="svg_49">
   <path fill="#cdf201" d="m1053.94809,230c-0.75,-1.073 -1.75,-1.24 -3,-0.5c-31.25,12.803 -62.58,25.303 -94,37.5c-5.73,-4.477 -9.73,-10.144 -12,-17c7.56,-3.281 15.23,-6.281 23,-9c7.87,13.283 18.21,15.449 31,6.5c15.67,-15 31.33,-30 47,-45c11.01,-4.663 17.68,-1.163 20,10.5c-0.09,2.423 -0.59,4.756 -1.5,7c-3.37,3.537 -6.87,6.871 -10.5,10z" opacity="0.97" id="svg_50"/>
  </g>
  <g id="svg_51">
   <path fill="#acea02" d="m972.94809,222c-4.73,5.535 -6.4,11.869 -5,19c-7.77,2.719 -15.44,5.719 -23,9c-1.43,-1.648 -2.26,-3.648 -2.5,-6c-0.5,-3.652 -0.67,-7.318 -0.5,-11c10.11,-4.428 20.28,-8.761 30.5,-13c0.46,0.594 0.63,1.261 0.5,2z" opacity="0.97" id="svg_52"/>
  </g>
  <g id="svg_53">
   <path fill="#fdfd00" d="m852.94809,239c13.7,0.396 18.2,7.063 13.5,20c-9,20 -18,40 -27,60c-6.42,7.242 -13.09,7.575 -20,1c-2.88,-4.476 -3.21,-9.143 -1,-14c9.33,-20.667 18.67,-41.333 28,-62c1.8,-2.326 3.97,-3.992 6.5,-5z" opacity="0.966" id="svg_54"/>
  </g>
  <g id="svg_55">
   <path fill="#e9f900" d="m1053.94809,230c-11.77,11.271 -23.44,22.771 -35,34.5c-10.93,10.42 -23.93,15.087 -39,14c-9.1,-1.216 -16.77,-5.05 -23,-11.5c31.42,-12.197 62.75,-24.697 94,-37.5c1.25,-0.74 2.25,-0.573 3,0.5z" opacity="0.988" id="svg_56"/>
  </g>
  <g id="svg_57">
   <path fill="#fdfd00" d="m770.94809,257c9.53,-1.464 15.2,2.536 17,12c-1.7,10.701 -3.53,21.368 -5.5,32c-3.56,6.578 -9.06,8.745 -16.5,6.5c-4.34,-2.333 -6.67,-6 -7,-11c1.66,-9.808 3.16,-19.641 4.5,-29.5c1.21,-4.369 3.71,-7.703 7.5,-10z" opacity="0.961" id="svg_58"/>
  </g>
  <g id="svg_59">
   <path fill="#00d3d3" d="m199.94809,331c-10.453,3.102 -20.953,7.102 -31.5,12c-0.399,-0.228 -0.565,-0.562 -0.5,-1c4.721,-5.276 7.721,-11.442 9,-18.5c-2.208,-9.437 -7.541,-11.77 -16,-7c-5.667,7 -12,13.333 -19,19c-14.258,10.475 -28.925,11.142 -44,2c-12.839,-12.528 -16.339,-27.361 -10.5,-44.5c10.621,-22.062 27.788,-30.228 51.5,-24.5c6.655,6.292 6.655,12.625 0,19c-5.867,1.855 -11.867,3.189 -18,4c-12.311,5.908 -14.977,14.575 -8,26c4.496,3.189 8.829,2.856 13,-1c8.487,-9.829 18.154,-18.163 29,-25c15.714,-5.87 28.881,-2.37 39.5,10.5c5.658,9.114 7.491,18.781 5.5,29z" opacity="0.962" id="svg_60"/>
  </g>
  <g id="svg_61">
   <path fill="#fdcc1e" d="m1112.94809,268c-1.32,2.186 -3.32,3.686 -6,4.5c-26.78,10.557 -53.45,21.39 -80,32.5c-0.61,-0.124 -0.94,-0.457 -1,-1c23.64,-13.822 47.31,-27.655 71,-41.5c6.79,-1.98 12.13,-0.147 16,5.5z" opacity="0.992" id="svg_62"/>
  </g>
  <g id="svg_63">
   <path fill="#fdc125" d="m1112.94809,268c1.57,2.135 2.9,4.468 4,7c0.09,0.996 -0.25,1.829 -1,2.5c-35.58,14.47 -71.25,28.637 -107,42.5c0.26,-3.191 1.6,-5.858 4,-8c4.35,-2.694 8.68,-5.36 13,-8c0.06,0.543 0.39,0.876 1,1c26.55,-11.11 53.22,-21.943 80,-32.5c2.68,-0.814 4.68,-2.314 6,-4.5z" opacity="0.981" id="svg_64"/>
  </g>
  <g id="svg_65">
   <path fill="#fcfc00" d="m564.94809,274c5.886,-1.157 10.719,0.51 14.5,5c12.089,17.177 24.422,34.177 37,51c6.153,7.049 5.986,13.882 -0.5,20.5c-5.428,2.994 -10.761,2.661 -16,-1c-13.833,-19.167 -27.667,-38.333 -41.5,-57.5c-3.133,-8.045 -0.966,-14.045 6.5,-18z" opacity="0.967" id="svg_66"/>
  </g>
  <g id="svg_67">
   <path fill="#fbfb01" d="m643.94809,273c4.73,0.282 8.563,2.282 11.5,6c4.759,10.609 8.925,21.443 12.5,32.5c-3.421,11.784 -10.588,14.617 -21.5,8.5c-4.92,-10.426 -9.253,-21.093 -13,-32c-0.907,-8.211 2.593,-13.211 10.5,-15z" opacity="0.963" id="svg_68"/>
  </g>
  <g id="svg_69">
   <path fill="#feb72c" d="m1116.94809,275c1.32,1.963 2.65,3.963 4,6c-37.38,14.463 -74.72,29.129 -112,44c0,-1.667 0,-3.333 0,-5c35.75,-13.863 71.42,-28.03 107,-42.5c0.75,-0.671 1.09,-1.504 1,-2.5z" opacity="0.997" id="svg_70"/>
  </g>
  <g id="svg_71">
   <path fill="#fdae31" d="m1120.94809,281c1.33,2.333 2.67,4.667 4,7c-8.4,2.799 -16.73,5.799 -25,9c-0.82,-1.64 -1.65,-3.307 -2.5,-5c-19.31,11.161 -38.48,22.495 -57.5,34c-8.13,3.6 -16.47,6.6 -25,9c-2.49,-2.966 -4.49,-6.299 -6,-10c37.28,-14.871 74.62,-29.537 112,-44z" opacity="0.986" id="svg_72"/>
  </g>
  <g id="svg_73">
   <path fill="#fd9840" d="m1124.94809,288c2.86,4.383 5.19,9.05 7,14c-7.49,3.572 -15.15,6.906 -23,10c-2.72,-5.097 -5.72,-10.097 -9,-15c8.27,-3.201 16.6,-6.201 25,-9z" opacity="0.985" id="svg_74"/>
  </g>
  <g id="svg_75">
   <path fill="#fcfc00" d="m893.94809,309c11.88,-0.287 16.72,5.38 14.5,17c-7.12,9.457 -14.62,18.624 -22.5,27.5c-13.32,3.347 -19.15,-1.82 -17.5,-15.5c7.13,-10.987 15.63,-20.653 25.5,-29z" opacity="0.961" id="svg_76"/>
  </g>
  <g id="svg_77">
   <path fill="#fe824d" d="m1131.94809,302c2.09,4.001 3.42,8.335 4,13c-8.45,3.059 -16.78,6.393 -25,10c0.08,-4.462 -0.59,-8.795 -2,-13c7.85,-3.094 15.51,-6.428 23,-10z" opacity="0.971" id="svg_78"/>
  </g>
  <g id="svg_79">
   <path fill="#fe6f59" d="m1135.94809,315c0.96,4.497 0.96,8.83 0,13c-9.59,3.863 -19.26,7.53 -29,11c2.57,-4.285 3.91,-8.951 4,-14c8.22,-3.607 16.55,-6.941 25,-10z" opacity="0.988" id="svg_80"/>
  </g>
  <g id="svg_81">
   <path fill="#19d4a0" d="m415.94809,324c-15.105,14.604 -30.105,29.438 -45,44.5c-0.594,0.464 -1.261,0.631 -2,0.5c6.252,-24.92 21.919,-39.92 47,-45z" opacity="0.989" id="svg_82"/>
  </g>
  <g id="svg_83">
   <path fill="#20d695" d="m415.94809,324c4.066,-0.193 8.066,0.14 12,1c-27.887,28.915 -56.553,56.915 -86,84c-1.637,-1.975 -3.304,-3.975 -5,-6c8.278,-9.947 17.278,-19.28 27,-28c1.294,0.79 2.461,1.79 3.5,3c0.696,-2.978 1.196,-5.978 1.5,-9c0.739,0.131 1.406,-0.036 2,-0.5c14.895,-15.062 29.895,-29.896 45,-44.5z" opacity="0.995" id="svg_84"/>
  </g>
  <g id="svg_85">
   <path fill="#f0fb00" d="m751.94809,327c-52.981,36.16 -106.314,71.826 -160,107c-4.924,-2.499 -7.924,-6.499 -9,-12c46.16,-31.914 92.493,-63.58 139,-95c10.03,-1.215 20.03,-1.215 30,0z" opacity="0.994" id="svg_86"/>
  </g>
  <g id="svg_87">
   <path fill="#26d688" d="m427.94809,325c3.979,0.242 7.646,1.242 11,3c-29.669,29.669 -59.669,59.002 -90,88c-2.667,-2 -5,-4.333 -7,-7c29.447,-27.085 58.113,-55.085 86,-84z" opacity="0.999" id="svg_88"/>
  </g>
  <g id="svg_89">
   <path fill="#e1f800" d="m721.94809,327c-46.507,31.42 -92.84,63.086 -139,95c-1.463,-5.67 -1.13,-11.336 1,-17c36.611,-23.949 72.944,-48.282 109,-73c9.465,-2.633 19.132,-4.3 29,-5z" opacity="0.992" id="svg_90"/>
  </g>
  <g id="svg_91">
   <path fill="#fcfb01" d="m751.94809,327c8.76,0.251 17.43,1.251 26,3c-0.44,1.574 -1.44,2.741 -3,3.5c-18.9,12.275 -37.57,24.775 -56,37.5c-41.625,8.316 -75.625,29.149 -102,62.5c-8.387,5.667 -16.72,5.834 -25,0.5c53.686,-35.174 107.019,-70.84 160,-107z" opacity="0.977" id="svg_92"/>
  </g>
  <g id="svg_93">
   <path fill="#2fd776" d="m438.94809,328c6.27,1.465 11.604,4.465 16,9c-9.033,10.033 -18.699,19.367 -29,28c-9.021,-2.513 -14.854,0.82 -17.5,10c-0.706,4.387 -0.54,8.72 0.5,13c-14.364,15.364 -29.364,30.031 -45,44c-5.705,-4.704 -10.705,-10.037 -15,-16c30.331,-28.998 60.331,-58.331 90,-88z" opacity="0.991" id="svg_94"/>
  </g>
  <g id="svg_95">
   <path fill="#fe9641" d="m1039.94809,326c2.67,5 5.33,10 8,15c-8,3 -16,6 -24,9c-3.39,-4.733 -6.39,-9.733 -9,-15c8.53,-2.4 16.87,-5.4 25,-9z" opacity="0.983" id="svg_96"/>
  </g>
  <g id="svg_97">
   <path fill="#d5f401" d="m692.94809,332c-36.056,24.718 -72.389,49.051 -109,73c27.373,-37.533 63.706,-61.866 109,-73z" opacity="0.989" id="svg_98"/>
  </g>
  <g id="svg_99">
   <path fill="#fdfd00" d="m972.94809,332c13.37,2.353 16.71,9.52 10,21.5c-19.49,14.246 -39.16,28.246 -59,42c-11.87,1.468 -17.03,-3.698 -15.5,-15.5c0.79,-2.087 1.96,-3.921 3.5,-5.5c18.51,-13.089 36.84,-26.422 55,-40c2.11,-0.845 4.11,-1.678 6,-2.5z" opacity="0.968" id="svg_100"/>
  </g>
  <g id="svg_101">
   <path fill="#fee70e" d="m777.94809,330c8.75,2.021 17.42,4.354 26,7c-15.49,11.246 -31.16,22.246 -47,33c-12.68,-0.155 -25.35,0.178 -38,1c18.43,-12.725 37.1,-25.225 56,-37.5c1.56,-0.759 2.56,-1.926 3,-3.5z" opacity="0.979" id="svg_102"/>
  </g>
  <g id="svg_103">
   <path fill="#00d3d3" d="m336.94809,346c-9.644,9.646 -18.978,19.646 -28,30c-5.611,-0.953 -10.111,1.047 -13.5,6c-1.707,2.409 -2.54,5.075 -2.5,8c-28.36,28.694 -57.36,56.694 -87,84c3.699,-32.365 21.699,-50.365 54,-54c-12.071,-26.066 -8.405,-49.566 11,-70.5c19.139,-15.274 39.806,-17.607 62,-7c1.593,0.949 2.926,2.115 4,3.5z" opacity="0.978" id="svg_104"/>
  </g>
  <g id="svg_105">
   <path fill="#06d4c6" d="m199.94809,331c-0.017,4.034 -1.017,7.701 -3,11c-18.457,6.932 -36.79,14.266 -55,22c-0.683,-0.363 -1.35,-0.696 -2,-1c-1.207,-4.884 0.127,-9.051 4,-12.5c5.924,-1.878 11.924,-3.545 18,-5c1.888,-1.394 3.888,-2.56 6,-3.5c-0.065,0.438 0.101,0.772 0.5,1c10.547,-4.898 21.047,-8.898 31.5,-12z" opacity="0.997" id="svg_106"/>
  </g>
  <g id="svg_107">
   <path fill="#fe5d64" d="m1135.94809,328c0.23,4.51 -0.44,8.843 -2,13c-28.74,11.711 -57.41,23.377 -86,35c-3.88,-2.434 -7.55,-5.101 -11,-8c7.64,-3.151 15.31,-6.318 23,-9.5c2.04,-0.498 3.38,-1.665 4,-3.5c18.63,6.126 32.96,0.792 43,-16c9.74,-3.47 19.41,-7.137 29,-11z" opacity="0.984" id="svg_108"/>
  </g>
  <g id="svg_109">
   <path fill="#fed916" d="m803.94809,337c5.18,2.094 10.18,4.428 15,7c-14.33,10 -28.67,20 -43,30c-6.43,-1.455 -12.76,-2.788 -19,-4c15.84,-10.754 31.51,-21.754 47,-33z" opacity="0.984" id="svg_110"/>
  </g>
  <g id="svg_111">
   <path fill="#0dd4b9" d="m196.94809,342c-9.486,21.913 -26.153,31.746 -50,29.5c-3.643,-1.805 -5.976,-4.638 -7,-8.5c0.65,0.304 1.317,0.637 2,1c18.21,-7.734 36.543,-15.068 55,-22z" opacity="0.995" id="svg_112"/>
  </g>
  <g id="svg_113">
   <path fill="#3ad85f" d="m454.94809,337c2.667,2 5,4.333 7,7c-9.64,8.973 -18.973,18.306 -28,28c-2.692,-2.362 -5.359,-4.696 -8,-7c10.301,-8.633 19.967,-17.967 29,-28z" opacity="0.992" id="svg_114"/>
  </g>
  <g id="svg_115">
   <path fill="#fe814e" d="m1047.94809,341c1.99,2.628 3.99,5.295 6,8c-8.53,2.4 -16.87,5.4 -25,9c-2.45,-2.129 -4.12,-4.796 -5,-8c8,-3 16,-6 24,-9z" opacity="0.965" id="svg_116"/>
  </g>
  <g id="svg_117">
   <path fill="#fd506c" d="m1133.94809,341c-1.15,4.297 -2.82,8.297 -5,12c-0.06,-0.543 -0.39,-0.876 -1,-1c-23.23,9.461 -46.23,19.127 -69,29c-3.79,-1.393 -7.45,-3.059 -11,-5c28.59,-11.623 57.26,-23.289 86,-35z" opacity="0.987" id="svg_118"/>
  </g>
  <g id="svg_119">
   <path fill="#fecc1f" d="m818.94809,344c5.65,2.159 10.98,4.826 16,8c-14.49,8.143 -28.49,17.143 -42,27c-5.73,-1.464 -11.39,-3.131 -17,-5c14.33,-10 28.67,-20 43,-30z" opacity="0.99" id="svg_120"/>
  </g>
  <g id="svg_121">
   <path fill="#fdfd00" d="m539.94809,350c3.441,-0.199 6.774,0.301 10,1.5c8.258,6.38 16.424,12.88 24.5,19.5c5.772,11.015 2.772,18.015 -9,21c-2.634,-0.434 -5.134,-1.267 -7.5,-2.5c-8.167,-6.833 -16.333,-13.667 -24.5,-20.5c-3.451,-8.403 -1.284,-14.736 6.5,-19z" opacity="0.962" id="svg_122"/>
  </g>
  <g id="svg_123">
   <path fill="#4ada42" d="m461.94809,344c3.972,4.307 7.972,8.641 12,13c-9.947,8.611 -19.614,17.611 -29,27c-3.638,-3.974 -7.305,-7.974 -11,-12c9.027,-9.694 18.36,-19.027 28,-28z" opacity="0.995" id="svg_124"/>
  </g>
  <g id="svg_125">
   <path fill="#fd6f59" d="m1053.94809,349c3.07,2.398 6.4,4.398 10,6c-0.62,1.835 -1.96,3.002 -4,3.5c-7.69,3.182 -15.36,6.349 -23,9.5c-3.14,-2.96 -5.81,-6.293 -8,-10c8.13,-3.6 16.47,-6.6 25,-9z" opacity="0.987" id="svg_126"/>
  </g>
  <g id="svg_127">
   <path fill="#fdbf27" d="m834.94809,352c3.6,1.602 6.93,3.602 10,6c-0.44,1.574 -1.44,2.741 -3,3.5c-12.24,7.942 -24.24,16.109 -36,24.5c-4.53,-2.095 -8.86,-4.428 -13,-7c13.51,-9.857 27.51,-18.857 42,-27z" opacity="0.987" id="svg_128"/>
  </g>
  <g id="svg_129">
   <path fill="#0bd4be" d="m336.94809,346c5.333,4.667 10.333,9.667 15,15c-9.974,8.639 -19.64,17.639 -29,27c-3.166,-2.334 -5.833,-5.167 -8,-8.5c-1.905,-1.421 -3.905,-2.588 -6,-3.5c9.022,-10.354 18.356,-20.354 28,-30z" opacity="0.996" id="svg_130"/>
  </g>
  <g id="svg_131">
   <path fill="#fc4175" d="m1128.94809,353c-16.54,25.928 -39.88,35.261 -70,28c22.77,-9.873 45.77,-19.539 69,-29c0.61,0.124 0.94,0.457 1,1z" opacity="0.991" id="svg_132"/>
  </g>
  <g id="svg_133">
   <path fill="#58db28" d="m473.94809,357c2.304,2.641 4.638,5.308 7,8c-8.699,9.7 -18.033,18.7 -28,27c-3,-2.333 -5.667,-5 -8,-8c9.386,-9.389 19.053,-18.389 29,-27z" opacity="0.992" id="svg_134"/>
  </g>
  <g id="svg_135">
   <path fill="#feb32e" d="m844.94809,358c4.4,2.525 8.4,5.525 12,9c-11.54,9.025 -23.54,17.525 -36,25.5c-0.95,0.483 -1.95,0.649 -3,0.5c-4,-2.333 -8,-4.667 -12,-7c11.76,-8.391 23.76,-16.558 36,-24.5c1.56,-0.759 2.56,-1.926 3,-3.5z" opacity="0.985" id="svg_136"/>
  </g>
  <g id="svg_137">
   <path fill="#00d3d2" d="m66.94809,385c-9.936,2.928 -19.936,6.595 -30,11c1.797,-7.559 4.297,-14.892 7.5,-22c5.479,-5.592 11.645,-6.425 18.5,-2.5c4.128,3.864 5.461,8.364 4,13.5z" opacity="0.95" id="svg_138"/>
  </g>
  <g id="svg_139">
   <path fill="#18d4a4" d="m351.94809,361c4.397,4.392 8.397,9.058 12,14c-9.722,8.72 -18.722,18.053 -27,28c-5.354,-4.387 -10.02,-9.387 -14,-15c9.36,-9.361 19.026,-18.361 29,-27z" opacity="0.991" id="svg_140"/>
  </g>
  <g id="svg_141">
   <path fill="#68db0b" d="m480.94809,365c4.324,4.625 8.657,9.292 13,14c-10.354,8.354 -19.688,17.688 -28,28c-4.7,-4.699 -9.034,-9.699 -13,-15c9.967,-8.3 19.301,-17.3 28,-27z" opacity="0.977" id="svg_142"/>
  </g>
  <g id="svg_143">
   <path fill="#fea637" d="m856.94809,367c3.96,2.622 7.62,5.622 11,9c-11.9,9.629 -24.56,18.296 -38,26c-4.02,-3.031 -8.02,-6.031 -12,-9c1.05,0.149 2.05,-0.017 3,-0.5c12.46,-7.975 24.46,-16.475 36,-25.5z" opacity="0.995" id="svg_144"/>
  </g>
  <g id="svg_145">
   <path fill="#fd993e" d="m867.94809,376c4.07,3.063 7.4,6.729 10,11c-12.04,8.692 -24.37,17.025 -37,25c-3.69,-3.362 -7.36,-6.695 -11,-10c13.44,-7.704 26.1,-16.371 38,-26z" opacity="0.989" id="svg_146"/>
  </g>
  <g id="svg_147">
   <path fill="#fd079b" d="m1163.94809,386c11.08,0.931 15.58,6.931 13.5,18c-0.78,1.786 -1.95,3.286 -3.5,4.5c-29.92,13.195 -59.92,26.195 -90,39c-12.94,1.057 -18.11,-4.777 -15.5,-17.5c0.78,-1.786 1.95,-3.286 3.5,-4.5c30.81,-13.094 61.48,-26.261 92,-39.5z" opacity="0.975" id="svg_148"/>
  </g>
  <g id="svg_149">
   <path fill="#7fe103" d="m493.94809,379c5.305,5.64 10.639,11.307 16,17c-9.366,9.367 -19.032,18.367 -29,27c-4.972,-5.307 -9.972,-10.64 -15,-16c8.312,-10.312 17.646,-19.646 28,-28z" opacity="0.995" id="svg_150"/>
  </g>
  <g id="svg_151">
   <path fill="#fd8d46" d="m877.94809,387c4.04,3.043 7.38,6.709 10,11c-1.7,-0.16 -3.37,0.006 -5,0.5c-10.96,8.141 -22.3,15.641 -34,22.5c-2.64,-2.974 -5.3,-5.974 -8,-9c12.63,-7.975 24.96,-16.308 37,-25z" opacity="0.992" id="svg_152"/>
  </g>
  <g id="svg_153">
   <path fill="#40d855" d="m408.94809,388c2.685,2.69 5.018,5.69 7,9c-0.739,-0.131 -1.406,0.036 -2,0.5c-14.201,14.369 -28.535,28.535 -43,42.5c-3.05,-2.049 -5.383,-4.716 -7,-8c15.636,-13.969 30.636,-28.636 45,-44z" opacity="0.986" id="svg_154"/>
  </g>
  <g id="svg_155">
   <path fill="#15d5ab" d="m110.94809,402c-9.8,3.167 -19.8,6.833 -30,11c1.857,-7.073 4.024,-14.073 6.5,-21c4.843,-7.726 11.343,-9.559 19.5,-5.5c4.874,4.335 6.207,9.502 4,15.5z" opacity="0.981" id="svg_156"/>
  </g>
  <g id="svg_157">
   <path fill="#06d4c7" d="m292.94809,390c-0.258,3.867 0.408,7.534 2,11c-28.397,28.713 -57.064,57.213 -86,85.5c-0.594,0.464 -1.261,0.631 -2,0.5c-0.873,-4.268 -1.206,-8.602 -1,-13c29.64,-27.306 58.64,-55.306 87,-84z" opacity="0.998" id="svg_158"/>
  </g>
  <g id="svg_159">
   <path fill="#4bd940" d="m415.94809,397c3.073,2.069 5.406,4.736 7,8c-14.085,15.421 -29.085,29.755 -45,43c-2.304,-2.641 -4.638,-5.308 -7,-8c14.465,-13.965 28.799,-28.131 43,-42.5c0.594,-0.464 1.261,-0.631 2,-0.5z" opacity="0.996" id="svg_160"/>
  </g>
  <g id="svg_161">
   <path fill="#fe824e" d="m887.94809,398c2.35,2.36 4.35,5.027 6,8c-11.77,9.392 -24.1,18.059 -37,26c-2.67,-3.667 -5.33,-7.333 -8,-11c11.7,-6.859 23.04,-14.359 34,-22.5c1.63,-0.494 3.3,-0.66 5,-0.5z" opacity="0.987" id="svg_162"/>
  </g>
  <g id="svg_163">
   <path fill="#0bd4be" d="m66.94809,385c-1.935,7.471 -4.268,14.805 -7,22c-10.484,3.606 -20.817,7.606 -31,12c2.296,-7.891 4.963,-15.558 8,-23c10.064,-4.405 20.064,-8.072 30,-11z" opacity="0.994" id="svg_164"/>
  </g>
  <g id="svg_165">
   <path fill="#0cd4ba" d="m294.94809,401c1.971,2.308 3.971,4.642 6,7c-29.621,30.62 -59.954,60.62 -91,90c-1.606,-3.486 -2.606,-7.153 -3,-11c0.739,0.131 1.406,-0.036 2,-0.5c28.936,-28.287 57.603,-56.787 86,-85.5z" opacity="0.998" id="svg_166"/>
  </g>
  <g id="svg_167">
   <path fill="#14d5ad" d="m300.94809,408c3.657,3.959 7.324,7.959 11,12c-0.739,-0.131 -1.406,0.036 -2,0.5c-14.228,14.396 -28.562,28.562 -43,42.5c-9.55,-4.976 -16.383,-2.31 -20.5,8c-0.499,3.652 -0.665,7.318 -0.5,11c0.131,0.739 -0.036,1.406 -0.5,2c-9.062,9.23 -18.228,18.23 -27.5,27c-0.958,-0.453 -1.792,-1.119 -2.5,-2c-2.372,-3.41 -4.205,-7.077 -5.5,-11c31.046,-29.38 61.379,-59.38 91,-90z" opacity="0.992" id="svg_168"/>
  </g>
  <g id="svg_169">
   <path fill="#9ae603" d="m509.94809,396c6.675,6.675 13.008,13.675 19,21c-5.441,4.266 -10.774,8.766 -16,13.5c-3.833,3.833 -7.667,7.667 -11.5,11.5c-0.483,0.948 -0.649,1.948 -0.5,3c-7.008,-7.008 -13.674,-14.342 -20,-22c9.968,-8.633 19.634,-17.633 29,-27z" opacity="0.981" id="svg_170"/>
  </g>
  <g id="svg_171">
   <path fill="#1fd695" d="m110.94809,402c-1.428,6.284 -3.428,12.284 -6,18c-21.106,8.053 -42.106,16.386 -63,25c-5.149,-0.482 -9.482,-2.482 -13,-6c9.411,-3.202 18.745,-6.702 28,-10.5c2.044,-0.498 3.378,-1.665 4,-3.5c4.598,1.705 9.265,2.871 14,3.5c1.925,-5.288 3.925,-10.455 6,-15.5c10.2,-4.167 20.2,-7.833 30,-11z" opacity="0.991" id="svg_172"/>
  </g>
  <g id="svg_173">
   <path fill="#2ad780" d="m153.94809,419c-9.915,4.194 -19.915,8.194 -30,12c2.191,-8.073 4.691,-16.073 7.5,-24c5.853,-8.934 13.186,-10.267 22,-4c3.104,5.36 3.271,10.694 0.5,16z" opacity="0.984" id="svg_174"/>
  </g>
  <g id="svg_175">
   <path fill="#fd7555" d="m893.94809,406c3.42,3.823 6.08,8.157 8,13c-12.67,8 -25.33,16 -38,24c-2.08,-3.836 -4.42,-7.503 -7,-11c12.9,-7.941 25.23,-16.608 37,-26z" opacity="0.989" id="svg_176"/>
  </g>
  <g id="svg_177">
   <path fill="#fcfc00" d="m972.94809,416c8.8,-0.36 13.8,3.807 15,12.5c-0.44,3.434 -1.77,6.434 -4,9c-12.13,6.045 -24.8,10.045 -38,12c-9.4,-5.022 -11.07,-11.856 -5,-20.5c10.58,-4.745 21.25,-9.078 32,-13z" opacity="0.963" id="svg_178"/>
  </g>
  <g id="svg_179">
   <path fill="#61db1a" d="m422.94809,405c6.37,5.369 12.037,11.369 17,18c-14.438,13.938 -28.772,28.104 -43,42.5c-0.594,0.464 -1.261,0.631 -2,0.5c-5.639,-5.974 -11.305,-11.974 -17,-18c15.915,-13.245 30.915,-27.579 45,-43z" opacity="0.997" id="svg_180"/>
  </g>
  <g id="svg_181">
   <path fill="#1cd59a" d="m311.94809,420c2.667,2 5,4.333 7,7c-14.98,13.978 -29.98,27.978 -45,42c-2.358,-2.029 -4.692,-4.029 -7,-6c14.438,-13.938 28.772,-28.104 43,-42.5c0.594,-0.464 1.261,-0.631 2,-0.5z" opacity="0.992" id="svg_182"/>
  </g>
  <g id="svg_183">
   <path fill="#17d5a5" d="m59.94809,407c-1.461,5.05 -3.128,10.05 -5,15c1.82,1.383 3.82,2.383 6,3c-0.622,1.835 -1.956,3.002 -4,3.5c-9.255,3.798 -18.589,7.298 -28,10.5c-2.427,-2.008 -3.427,-4.674 -3,-8c0.189,-4.228 1.189,-8.228 3,-12c10.183,-4.394 20.516,-8.394 31,-12z" opacity="0.988" id="svg_184"/>
  </g>
  <g id="svg_185">
   <path fill="#26d688" d="m104.94809,420c-0.761,4.284 -2.095,8.284 -4,12c-0.751,-1.073 -1.751,-1.24 -3,-0.5c-14.686,5.685 -29.019,11.851 -43,18.5c-4.482,-1.49 -8.816,-3.157 -13,-5c20.894,-8.614 41.894,-16.947 63,-25z" opacity="0.99" id="svg_186"/>
  </g>
  <g id="svg_187">
   <path fill="#b3ec02" d="m528.94809,417c4.123,3.579 7.79,7.579 11,12c-8.611,9.947 -17.611,19.614 -27,29c-3.972,-4.307 -7.972,-8.641 -12,-13c-0.149,-1.052 0.017,-2.052 0.5,-3c3.833,-3.833 7.667,-7.667 11.5,-11.5c5.226,-4.734 10.559,-9.234 16,-13.5z" opacity="0.993" id="svg_188"/>
  </g>
  <g id="svg_189">
   <path fill="#fd695d" d="m901.94809,419c2.76,3.178 4.76,6.845 6,11c-11.71,9.355 -24.05,18.021 -37,26c-2.57,-4.139 -4.9,-8.473 -7,-13c12.67,-8 25.33,-16 38,-24z" opacity="0.988" id="svg_190"/>
  </g>
  <g id="svg_191">
   <path fill="#23d68e" d="m318.94809,427c1.667,2 3.333,4 5,6c-5.07,6.576 -10.737,12.743 -17,18.5c-8.891,8.396 -17.891,16.562 -27,24.5c-2.719,-1.719 -4.719,-4.053 -6,-7c15.02,-14.022 30.02,-28.022 45,-42z" opacity="0.982" id="svg_192"/>
  </g>
  <g id="svg_193">
   <path fill="#79df03" d="m439.94809,423c5.343,5.344 10.343,11.011 15,17c-15.025,14.025 -29.358,28.691 -43,44c-6.37,-5.369 -12.037,-11.369 -17,-18c0.739,0.131 1.406,-0.036 2,-0.5c14.228,-14.396 28.562,-28.562 43,-42.5z" opacity="0.989" id="svg_194"/>
  </g>
  <g id="svg_195">
   <path fill="#29d681" d="m323.94809,433c3,2.333 5.667,5 8,8c-15.02,14.022 -30.02,28.022 -45,42c-2.667,-2 -5,-4.333 -7,-7c9.109,-7.938 18.109,-16.104 27,-24.5c6.263,-5.757 11.93,-11.924 17,-18.5z" opacity="0.985" id="svg_196"/>
  </g>
  <g id="svg_197">
   <path fill="#fe5c65" d="m907.94809,430c2.96,4.191 4.96,8.858 6,14c-12.42,8.426 -25.09,16.426 -38,24c-2.04,-3.761 -3.7,-7.761 -5,-12c12.95,-7.979 25.29,-16.645 37,-26z" opacity="0.986" id="svg_198"/>
  </g>
  <g id="svg_199">
   <path fill="#c7f101" d="m539.94809,429c4.789,4.245 9.122,8.911 13,14c-9.968,8.633 -19.634,17.633 -29,27c-3.667,-4 -7.333,-8 -11,-12c9.389,-9.386 18.389,-19.053 27,-29z" opacity="0.974" id="svg_200"/>
  </g>
  <g id="svg_201">
   <path fill="#32d66f" d="m153.94809,419c-1.602,6.471 -3.602,12.804 -6,19c-19.836,7.049 -39.169,15.049 -58,24c-11.513,-4.393 -23.179,-8.393 -35,-12c13.981,-6.649 28.314,-12.815 43,-18.5c1.249,-0.74 2.249,-0.573 3,0.5c-0.369,1.941 -1.036,3.775 -2,5.5c6.371,2.068 12.704,4.235 19,6.5c2.386,-4.159 4.386,-8.492 6,-13c10.085,-3.806 20.085,-7.806 30,-12z" opacity="0.978" id="svg_202"/>
  </g>
  <g id="svg_203">
   <path fill="#3cd85c" d="m147.94809,438c-1,3.333 -2,6.667 -3,10c-12.979,5.154 -25.979,10.32 -39,15.5c-1.442,0.377 -2.442,1.21 -3,2.5c-4.333,-1.333 -8.667,-2.667 -13,-4c18.831,-8.951 38.164,-16.951 58,-24z" opacity="0.979" id="svg_204"/>
  </g>
  <g id="svg_205">
   <path fill="#31d773" d="m331.94809,441c2.667,3 5.333,6 8,9c-14.693,14.361 -29.36,28.694 -44,43c-3.734,-2.731 -6.734,-6.064 -9,-10c14.98,-13.978 29.98,-27.978 45,-42z" opacity="0.999" id="svg_206"/>
  </g>
  <g id="svg_207">
   <path fill="#dbf601" d="m552.94809,443c4.972,5.307 9.972,10.64 15,16c-9.667,9 -19,18.333 -28,28c-5.305,-5.64 -10.639,-11.307 -16,-17c9.366,-9.367 19.032,-18.367 29,-27z" opacity="0.976" id="svg_208"/>
  </g>
  <g id="svg_209">
   <path fill="#fe506d" d="m913.94809,444c2.04,3.766 3.71,7.766 5,12c-13.52,7.925 -26.52,16.592 -39,26c-1.91,-4.397 -3.24,-9.063 -4,-14c12.91,-7.574 25.58,-15.574 38,-24z" opacity="0.98" id="svg_210"/>
  </g>
  <g id="svg_211">
   <path fill="#93e503" d="m454.94809,440c6.37,5.369 12.037,11.369 17,18c-0.739,-0.131 -1.406,0.036 -2,0.5c-13.862,14.196 -28.029,28.029 -42.5,41.5c-0.671,-0.752 -1.504,-1.086 -2.5,-1c-4.707,-4.705 -9.04,-9.705 -13,-15c13.642,-15.309 27.975,-29.975 43,-44z" opacity="0.991" id="svg_212"/>
  </g>
  <g id="svg_213">
   <path fill="#3ad860" d="m339.94809,450c2.719,1.719 4.719,4.053 6,7c-14.64,14.306 -29.307,28.639 -44,43c-2.227,-2.107 -4.227,-4.44 -6,-7c14.64,-14.306 29.307,-28.639 44,-43z" opacity="0.99" id="svg_214"/>
  </g>
  <g id="svg_215">
   <path fill="#44d84c" d="m144.94809,448c-2.197,6.754 -4.697,13.421 -7.5,20c-4.14,4.711 -9.306,6.211 -15.5,4.5c-6.399,-2.077 -12.732,-4.244 -19,-6.5c0.558,-1.29 1.558,-2.123 3,-2.5c13.021,-5.18 26.021,-10.346 39,-15.5z" opacity="0.985" id="svg_216"/>
  </g>
  <g id="svg_217">
   <path fill="#46d94a" d="m345.94809,457c3.667,3 7,6.333 10,10c-1.422,0.209 -2.755,0.709 -4,1.5c-13.944,13.776 -27.611,27.609 -41,41.5c-2.971,-3.308 -5.971,-6.641 -9,-10c14.693,-14.361 29.36,-28.694 44,-43z" opacity="0.991" id="svg_218"/>
  </g>
  <g id="svg_219">
   <path fill="#fd089b" d="m1144.94809,463c35,0.186 56.5,17.186 64.5,51c2.39,36.599 -14.11,59.432 -49.5,68.5c-25.5,2.958 -45.67,-5.876 -60.5,-26.5c-13.43,-23.997 -12.43,-47.33 3,-70c11.19,-13.342 25.36,-21.008 42.5,-23zm1,25c26.94,1.107 39.77,15.107 38.5,42c-6.52,20.85 -20.69,30.016 -42.5,27.5c-19.5,-6.495 -28.33,-19.995 -26.5,-40.5c3.9,-16.406 14.07,-26.073 30.5,-29z" opacity="0.977" id="svg_220"/>
  </g>
  <g id="svg_221">
   <path fill="#fe4375" d="m918.94809,456c1.33,4.667 2.67,9.333 4,14c-13.37,9.013 -26.7,18.013 -40,27c-1.36,-4.804 -2.36,-9.804 -3,-15c12.48,-9.408 25.48,-18.075 39,-26z" opacity="0.992" id="svg_222"/>
  </g>
  <g id="svg_223">
   <path fill="#52da33" d="m355.94809,467c1.637,1.975 3.304,3.975 5,6c-14.239,14.783 -28.906,29.117 -44,43c-2.333,-1.667 -4.333,-3.667 -6,-6c13.389,-13.891 27.056,-27.724 41,-41.5c1.245,-0.791 2.578,-1.291 4,-1.5z" opacity="0.999" id="svg_224"/>
  </g>
  <g id="svg_225">
   <path fill="#abeb02" d="m471.94809,458c5.305,5.64 10.639,11.307 16,17c-1.052,-0.149 -2.052,0.017 -3,0.5c-14.506,13.673 -28.839,27.506 -43,41.5c-5.639,-5.974 -11.305,-11.974 -17,-18c0.996,-0.086 1.829,0.248 2.5,1c14.471,-13.471 28.638,-27.304 42.5,-41.5c0.594,-0.464 1.261,-0.631 2,-0.5z" opacity="0.996" id="svg_226"/>
  </g>
  <g id="svg_227">
   <path fill="#f8fc00" d="m567.94809,459c6.675,6.675 13.008,13.675 19,21c-8.699,9.7 -18.033,18.7 -28,27c-7.036,-6.035 -13.369,-12.702 -19,-20c9,-9.667 18.333,-19 28,-28z" opacity="0.982" id="svg_228"/>
  </g>
  <g id="svg_229">
   <path fill="#fdfd00" d="m1026.94809,472c13.06,1.131 17.23,7.797 12.5,20c-1.21,1.549 -2.71,2.715 -4.5,3.5c-25.56,3.722 -51.22,6.056 -77,7c-6.58,-3.561 -8.75,-9.061 -6.5,-16.5c1.67,-3.665 4.5,-5.832 8.5,-6.5c22.53,-2.117 44.86,-4.617 67,-7.5z" opacity="0.967" id="svg_230"/>
  </g>
  <g id="svg_231">
   <path fill="#fe377d" d="m922.94809,470c0.92,4.29 1.59,8.624 2,13c0.22,1.175 -0.11,2.175 -1,3c-13.05,9.186 -26.38,17.852 -40,26c-0.42,-4.993 -0.75,-9.993 -1,-15c13.3,-8.987 26.63,-17.987 40,-27z" opacity="0.99" id="svg_232"/>
  </g>
  <g id="svg_233">
   <path fill="#c3f001" d="m487.94809,475c4.972,5.307 9.972,10.64 15,16c-1.052,-0.149 -2.052,0.017 -3,0.5c-14.138,13.137 -27.971,26.637 -41.5,40.5c-0.464,0.594 -0.631,1.261 -0.5,2c-6.038,-5.037 -11.371,-10.703 -16,-17c14.161,-13.994 28.494,-27.827 43,-41.5c0.948,-0.483 1.948,-0.649 3,-0.5z" opacity="0.989" id="svg_234"/>
  </g>
  <g id="svg_235">
   <path fill="#fef207" d="m586.94809,480c4.376,3.374 8.042,7.374 11,12c-8.306,9.973 -17.306,19.307 -27,28c-4.708,-3.707 -8.708,-8.04 -12,-13c9.967,-8.3 19.301,-17.3 28,-27z" opacity="0.981" id="svg_236"/>
  </g>
  <g id="svg_237">
   <path fill="#67dc10" d="m360.94809,473c6.222,6.1 12.222,12.434 18,19c-15.941,13.273 -30.941,27.606 -45,43c-6.037,-6.035 -11.704,-12.369 -17,-19c15.094,-13.883 29.761,-28.217 44,-43z" opacity="0.992" id="svg_238"/>
  </g>
  <g id="svg_239">
   <path fill="#fe2a85" d="m924.94809,483c1.51,5.429 2.18,11.096 2,17c-13.35,11.194 -27.68,21.194 -43,30c0,-6 0,-12 0,-18c13.62,-8.148 26.95,-16.814 40,-26c0.89,-0.825 1.22,-1.825 1,-3z" opacity="0.982" id="svg_240"/>
  </g>
  <g id="svg_241">
   <path fill="#21d692" d="m245.94809,482c3.555,5.571 7.555,10.904 12,16c-9,9.333 -18,18.667 -27,28c-5.448,-4.109 -9.781,-9.109 -13,-15c9.272,-8.77 18.438,-17.77 27.5,-27c0.464,-0.594 0.631,-1.261 0.5,-2z" opacity="0.979" id="svg_242"/>
  </g>
  <g id="svg_243">
   <path fill="#4ad943" d="m88.94809,495c-16.667,7 -33.333,14 -50,21c-2.454,0.727 -4.787,1.727 -7,3c-9.359,3.175 -18.526,6.842 -27.5,11c-0.383,-0.556 -0.883,-0.889 -1.5,-1c2.907,-27.74 18.24,-40.24 46,-37.5c6.572,1.618 12.239,4.784 17,9.5c7.042,-4.46 14.709,-6.46 23,-6z" opacity="0.99" id="svg_244"/>
  </g>
  <g id="svg_245">
   <path fill="#fee50f" d="m597.94809,492c5.354,4.387 10.02,9.387 14,15c-9.307,8.972 -18.64,17.972 -28,27c-5.04,-4.039 -9.373,-8.706 -13,-14c9.694,-8.693 18.694,-18.027 27,-28z" opacity="0.978" id="svg_246"/>
  </g>
  <g id="svg_247">
   <path fill="#57db28" d="m88.94809,495c8.757,0.463 16.09,3.797 22,10c-18.913,8.815 -38.247,16.982 -58,24.5c-1.314,0.985 -2.314,2.152 -3,3.5c3.068,-10.199 -0.599,-15.866 -11,-17c16.667,-7 33.333,-14 50,-21z" opacity="0.998" id="svg_248"/>
  </g>
  <g id="svg_249">
   <path fill="#80e103" d="m378.94809,492c5.365,5.364 10.365,11.031 15,17c-14.693,14.361 -29.36,28.694 -44,43c-5.305,-5.64 -10.639,-11.307 -16,-17c14.059,-15.394 29.059,-29.727 45,-43z" opacity="0.994" id="svg_250"/>
  </g>
  <g id="svg_251">
   <path fill="#dcf601" d="m502.94809,491c5.372,5.37 10.372,11.037 15,17c-15.075,14.408 -29.742,29.075 -44,44c-5.676,-5.677 -11.009,-11.677 -16,-18c-0.131,-0.739 0.036,-1.406 0.5,-2c13.529,-13.863 27.362,-27.363 41.5,-40.5c0.948,-0.483 1.948,-0.649 3,-0.5z" opacity="0.989" id="svg_252"/>
  </g>
  <g id="svg_253">
   <path fill="#fe1e8d" d="m926.94809,500c0.99,4.805 1.32,9.805 1,15c-0.75,1.031 -1.42,2.198 -2,3.5c-10.67,7 -21.33,14 -32,21c-1.1,0.77 -1.1,1.603 0,2.5c-2.91,-1.287 -5.91,-2.287 -9,-3c-1,-0.333 -1.67,-1 -2,-2c0.49,-2.306 0.83,-4.639 1,-7c15.32,-8.806 29.65,-18.806 43,-30z" opacity="0.984" id="svg_254"/>
  </g>
  <g id="svg_255">
   <path fill="#2fd777" d="m257.94809,498c5.556,5.434 10.889,11.101 16,17c-9.366,9.367 -19.032,18.367 -29,27c-5.01,-5.012 -9.677,-10.345 -14,-16c9,-9.333 18,-18.667 27,-28z" id="svg_256"/>
  </g>
  <g id="svg_257">
   <path fill="#f0fb00" d="m517.94809,508c4.333,3.667 8.333,7.667 12,12c-15.636,13.969 -30.636,28.636 -45,44c-3.638,-3.974 -7.305,-7.974 -11,-12c14.258,-14.925 28.925,-29.592 44,-44z" opacity="0.993" id="svg_258"/>
  </g>
  <g id="svg_259">
   <path fill="#fed817" d="m611.94809,507c4.223,4.102 8.223,8.435 12,13c-9.967,8.3 -19.301,17.3 -28,27c-4.73,-3.727 -8.73,-8.06 -12,-13c9.36,-9.028 18.693,-18.028 28,-27z" opacity="0.996" id="svg_260"/>
  </g>
  <g id="svg_261">
   <path fill="#3bd85f" d="m273.94809,515c2.7,1.734 4.7,4.068 6,7c-9.333,9 -18.667,18 -28,27c-2.667,-2 -5,-4.333 -7,-7c9.968,-8.633 19.634,-17.633 29,-27z" opacity="0.973" id="svg_262"/>
  </g>
  <g id="svg_263">
   <path fill="#99e702" d="m393.94809,509c5.705,4.704 10.705,10.037 15,16c-14.64,14.306 -29.307,28.639 -44,43c-4.991,-5.292 -9.991,-10.625 -15,-16c14.64,-14.306 29.307,-28.639 44,-43z" opacity="0.995" id="svg_264"/>
  </g>
  <g id="svg_265">
   <path fill="#fecc1f" d="m623.94809,520c4.223,4.102 8.223,8.435 12,13c-8.952,9.619 -18.285,18.952 -28,28c-4.397,-4.392 -8.397,-9.058 -12,-14c8.699,-9.7 18.033,-18.7 28,-27z" opacity="0.992" id="svg_266"/>
  </g>
  <g id="svg_267">
   <path fill="#fdf803" d="m529.94809,520c4,4.333 8,8.667 12,13c0.149,1.052 -0.017,2.052 -0.5,3c-14.673,13.84 -29.173,27.84 -43.5,42c-4.305,-4.641 -8.639,-9.307 -13,-14c14.364,-15.364 29.364,-30.031 45,-44z" opacity="0.991" id="svg_268"/>
  </g>
  <g id="svg_269">
   <path fill="#4ad942" d="m279.94809,522c4.376,3.374 8.042,7.374 11,12c-9.667,9 -19,18.333 -28,28c-4.042,-4.04 -7.709,-8.373 -11,-13c9.333,-9 18.667,-18 28,-27z" opacity="0.994" id="svg_270"/>
  </g>
  <g id="svg_271">
   <path fill="#fe0d98" d="m927.94809,515c0.06,19.615 -2.94,38.615 -9,57c-2.83,-7.657 -7.16,-14.323 -13,-20c-3.28,-3.971 -7.28,-6.971 -12,-9c0,-0.333 0,-0.667 0,-1c-1.1,-0.897 -1.1,-1.73 0,-2.5c10.67,-7 21.33,-14 32,-21c0.58,-1.302 1.25,-2.469 2,-3.5z" opacity="0.975" id="svg_272"/>
  </g>
  <g id="svg_273">
   <path fill="#fe506e" d="m860.94809,537c7.18,-1.202 14.52,-1.202 22,0c0.33,1 1,1.667 2,2c-36.67,36.333 -73.33,72.67 -110,109c-11.29,5.33 -23.29,7.99 -36,8c1.11,-0.79 2.44,-1.29 4,-1.5c39.67,-39 79.33,-78 119,-117c-0.23,-0.399 -0.56,-0.565 -1,-0.5z" opacity="0.993" id="svg_274"/>
  </g>
  <g id="svg_275">
   <path fill="#b2ec02" d="m408.94809,525c6.12,5.576 11.787,11.576 17,18c-15.688,13.688 -30.354,28.354 -44,44c-6.009,-6.01 -11.675,-12.343 -17,-19c14.693,-14.361 29.36,-28.694 44,-43z" opacity="0.993" id="svg_276"/>
  </g>
  <g id="svg_277">
   <path fill="#fc4772" d="m884.94809,539c3.09,0.713 6.09,1.713 9,3c0,0.333 0,0.667 0,1c-10.8,11.298 -21.8,22.465 -33,33.5c0.23,0.399 0.56,0.565 1,0.5c-23.37,19.53 -46.03,40.03 -68,61.5c-6.02,3.87 -12.35,7.03 -19,9.5c36.67,-36.33 73.33,-72.667 110,-109z" opacity="0.982" id="svg_278"/>
  </g>
  <g id="svg_279">
   <path fill="#58db27" d="m31.94809,519c-2.324,8.639 -3.99,17.306 -5,26c0.03,-0.997 -0.47,-1.664 -1.5,-2c-8.155,3.439 -16.322,6.772 -24.5,10c0.74,-7.993 1.407,-15.993 2,-24c0.617,0.111 1.117,0.444 1.5,1c8.974,-4.158 18.141,-7.825 27.5,-11z" opacity="0.964" id="svg_280"/>
  </g>
  <g id="svg_281">
   <path fill="#58db28" d="m290.94809,534c3.333,2.667 6.333,5.667 9,9c-21.769,20.268 -43.103,41.101 -64,62.5c-7.891,7.4 -15.891,14.56 -24,21.5c-1.226,-5.98 -1.226,-11.98 0,-18c0.617,0.11 1.117,0.44 1.5,1c16.138,-15.14 31.971,-30.638 47.5,-46.5c-0.556,-0.383 -0.889,-0.883 -1,-1.5c1,0 2,0 3,0c9,-9.667 18.333,-19 28,-28z" opacity="0.998" id="svg_282"/>
  </g>
  <g id="svg_283">
   <path fill="#fec026" d="m635.94809,533c4.223,4.102 8.223,8.435 12,13c-9.307,8.972 -18.64,17.972 -28,27c-4.333,-3.667 -8.333,-7.667 -12,-12c9.715,-9.048 19.048,-18.381 28,-28z" opacity="0.981" id="svg_284"/>
  </g>
  <g id="svg_285">
   <path fill="#69dc0c" d="m110.94809,505c7.162,6.323 11.162,14.323 12,24c-8.882,2.774 -17.549,6.108 -26,10c1.809,-7.657 -0.524,-13.49 -7,-17.5c-6.182,-1.275 -10.682,0.892 -13.5,6.5c-1.235,10.017 -2.401,20.017 -3.5,30c-17.129,5.705 -33.796,12.372 -50,20c-4.677,-0.335 -9.344,-0.835 -14,-1.5c-4.18,-1.002 -7.014,-3.502 -8.5,-7.5c-0.733,-5.385 -0.567,-10.718 0.5,-16c8.178,-3.228 16.345,-6.561 24.5,-10c1.03,0.336 1.53,1.003 1.5,2c0,2.667 0,5.333 0,8c6.984,0.813 13.984,1.48 21,2c0.847,-7.312 1.513,-14.646 2,-22c0.686,-1.348 1.686,-2.515 3,-3.5c19.753,-7.518 39.087,-15.685 58,-24.5z" opacity="0.986" id="svg_286"/>
  </g>
  <g id="svg_287">
   <path fill="#fdfd00" d="m957.94809,543c12.96,1.159 25.63,3.659 38,7.5c4.18,4.967 5.02,10.467 2.5,16.5c-2.54,3.688 -6.04,5.354 -10.5,5c-11.98,-1.217 -23.65,-3.717 -35,-7.5c-6.54,-9.283 -4.87,-16.45 5,-21.5z" opacity="0.961" id="svg_288"/>
  </g>
  <g id="svg_289">
   <path fill="#fd5d64" d="m860.94809,537c0.44,-0.065 0.77,0.101 1,0.5c-39.67,39 -79.33,78 -119,117c-1.56,0.21 -2.89,0.71 -4,1.5c-6.59,-0.18 -12.93,-1.18 -19,-3c13.44,-12.94 26.77,-26.1 40,-39.5c-0.95,-0.48 -1.95,-0.65 -3,-0.5c6.24,-2.46 11.91,-5.96 17,-10.5c20.74,-20.072 42.07,-39.406 64,-58c7.13,-4.209 14.79,-6.709 23,-7.5z" opacity="0.99" id="svg_290"/>
  </g>
  <g id="svg_291">
   <path fill="#feeb0b" d="m541.94809,533c4.305,4.641 8.639,9.307 13,14c0.131,0.739 -0.036,1.406 -0.5,2c-14.865,14.006 -29.365,28.339 -43.5,43c-4.305,-4.641 -8.639,-9.307 -13,-14c14.327,-14.16 28.827,-28.16 43.5,-42c0.483,-0.948 0.649,-1.948 0.5,-3z" opacity="0.996" id="svg_292"/>
  </g>
  <g id="svg_293">
   <path fill="#85e203" d="m122.94809,529c-0.593,8.007 -1.26,16.007 -2,24c-0.617,-0.111 -1.117,-0.444 -1.5,-1c-23.209,9.785 -46.376,19.452 -69.5,29c-9.058,-0.636 -18.058,-1.636 -27,-3c16.204,-7.628 32.871,-14.295 50,-20c6.874,0.893 13.707,1.893 20.5,3c1.212,-7.464 2.378,-14.798 3.5,-22c8.451,-3.892 17.118,-7.226 26,-10z" opacity="0.974" id="svg_294"/>
  </g>
  <g id="svg_295">
   <path fill="#fe3d79" d="m893.94809,543c4.72,2.029 8.72,5.029 12,9c-8.28,9.947 -17.28,19.28 -27,28c-4.92,-4.978 -10.59,-5.978 -17,-3c-0.44,0.065 -0.77,-0.101 -1,-0.5c11.2,-11.035 22.2,-22.202 33,-33.5z" opacity="0.991" id="svg_296"/>
  </g>
  <g id="svg_297">
   <path fill="#65dc0f" d="m299.94809,543c2.304,2.641 4.638,5.308 7,8c0.149,1.052 -0.017,2.052 -0.5,3c-30.035,29.536 -60.202,58.87 -90.5,88c-2.11,-4.77 -3.444,-9.77 -4,-15c8.109,-6.94 16.109,-14.1 24,-21.5c20.897,-21.399 42.231,-42.232 64,-62.5z" opacity="0.996" id="svg_298"/>
  </g>
  <g id="svg_299">
   <path fill="#74de03" d="m306.94809,551c5.305,5.64 10.639,11.307 16,17c-13.583,14.084 -27.416,28.08 -41.5,42c-0.483,0.95 -0.649,1.95 -0.5,3c-3.88,-4.05 -8.213,-7.55 -13,-10.5c-3.134,-0.79 -6.134,-0.46 -9,1c-10.327,9.8 -10.661,19.97 -1,30.5c-8.078,6.57 -15.745,13.74 -23,21.5c-2.234,1.75 -4.568,3.25 -7,4.5c-4.992,-5.31 -8.992,-11.31 -12,-18c30.298,-29.13 60.465,-58.464 90.5,-88c0.483,-0.948 0.649,-1.948 0.5,-3z" opacity="0.984" id="svg_300"/>
  </g>
  <g id="svg_301">
   <path fill="#fdb42e" d="m647.94809,546c3.638,3.974 7.305,7.974 11,12c-10.327,8.327 -19.661,17.661 -28,28c-4.036,-4.034 -7.702,-8.368 -11,-13c9.36,-9.028 18.693,-18.028 28,-27z" opacity="0.983" id="svg_302"/>
  </g>
  <g id="svg_303">
   <path fill="#9de802" d="m120.94809,553c-1.272,8.602 -2.438,17.269 -3.5,26c-1.984,5.647 -5.984,8.647 -12,9c-18.509,-2.371 -37.009,-4.704 -55.5,-7c23.124,-9.548 46.291,-19.215 69.5,-29c0.383,0.556 0.883,0.889 1.5,1z" opacity="0.98" id="svg_304"/>
  </g>
  <g id="svg_305">
   <path fill="#caf201" d="m425.94809,543c5.365,5.364 10.365,11.031 15,17c-11.443,10.273 -22.777,20.773 -34,31.5c-3.939,3.43 -7.272,7.26 -10,11.5c-4.972,-5.31 -9.972,-10.64 -15,-16c13.646,-15.646 28.312,-30.312 44,-44z" opacity="0.994" id="svg_306"/>
  </g>
  <g id="svg_307">
   <path fill="#fedf13" d="m554.94809,547c4.639,4.974 9.305,9.974 14,15c-14.973,14.639 -29.973,29.306 -45,44c-4.305,-4.64 -8.639,-9.31 -13,-14c14.135,-14.661 28.635,-28.994 43.5,-43c0.464,-0.594 0.631,-1.261 0.5,-2z" opacity="0.993" id="svg_308"/>
  </g>
  <g id="svg_309">
   <path fill="#4bd93f" d="m259.94809,562c0.111,0.617 0.444,1.117 1,1.5c-15.529,15.862 -31.362,31.36 -47.5,46.5c-0.383,-0.56 -0.883,-0.89 -1.5,-1c5.463,-26.463 21.463,-42.13 48,-47z" opacity="0.997" id="svg_310"/>
  </g>
  <g id="svg_311">
   <path fill="#fda736" d="m658.94809,558c4.678,4.679 9.011,9.679 13,15c-9,9.333 -18,18.667 -27,28c-5.354,-4.39 -10.02,-9.387 -14,-15c8.339,-10.339 17.673,-19.673 28,-28z" opacity="0.989" id="svg_312"/>
  </g>
  <g id="svg_313">
   <path fill="#fed21b" d="m568.94809,562c3.638,3.974 7.305,7.974 11,12c0.131,0.739 -0.036,1.406 -0.5,2c-12.167,10.833 -23.667,22.33 -34.5,34.5c-3.229,2.74 -6.562,5.24 -10,7.5c-3.638,-3.97 -7.305,-7.97 -11,-12c15.027,-14.694 30.027,-29.361 45,-44z" opacity="0.993" id="svg_314"/>
  </g>
  <g id="svg_315">
   <path fill="#fd2a85" d="m905.94809,552c5.84,5.677 10.17,12.343 13,20c1.13,2.87 1.8,5.87 2,9c-46.1,43.93 -91.77,88.43 -137,133.5c-3.56,3.07 -7.23,5.91 -11,8.5c34.7,-37.2 68.87,-74.86 102.5,-113c8.38,-9.24 9.54,-19.236 3.5,-30c9.72,-8.72 18.72,-18.053 27,-28z" opacity="0.972" id="svg_316"/>
  </g>
  <g id="svg_317">
   <path fill="#e4f801" d="m440.94809,560c6.038,5.037 11.371,10.703 16,17c-14.693,14.361 -29.36,28.69 -44,43c-5.556,-5.43 -10.889,-11.1 -16,-17c2.728,-4.24 6.061,-8.07 10,-11.5c11.223,-10.727 22.557,-21.227 34,-31.5z" opacity="0.992" id="svg_318"/>
  </g>
  <g id="svg_319">
   <path fill="#fe9a3f" d="m671.94809,573c4.667,4 9,8.333 13,13c-7.132,6.631 -14.132,13.46 -21,20.5c-2.565,2.08 -5.232,3.91 -8,5.5c-4,-3.33 -7.667,-7 -11,-11c9,-9.333 18,-18.667 27,-28z" opacity="0.987" id="svg_320"/>
  </g>
  <g id="svg_321">
   <path fill="#fdc324" d="m579.94809,574c6.797,6.126 12.464,13.126 17,21c-13.667,14.33 -27.667,28.33 -42,42c-3.103,-1.92 -6.103,-4.09 -9,-6.5c-3.503,-4.33 -7.17,-8.5 -11,-12.5c3.438,-2.26 6.771,-4.76 10,-7.5c10.833,-12.17 22.333,-23.667 34.5,-34.5c0.464,-0.594 0.631,-1.261 0.5,-2z" opacity="0.986" id="svg_322"/>
  </g>
  <g id="svg_323">
   <path fill="#92e503" d="m322.94809,568c5.676,5.677 11.009,11.677 16,18c-13.661,14.49 -27.827,28.49 -42.5,42c-0.464,0.59 -0.631,1.26 -0.5,2c-5.225,-5.44 -10.225,-11.1 -15,-17c-0.149,-1.05 0.017,-2.05 0.5,-3c14.084,-13.92 27.917,-27.916 41.5,-42z" opacity="0.995" id="svg_324"/>
  </g>
  <g id="svg_325">
   <path fill="#fafc00" d="m456.94809,577c4.89,4.768 9.556,9.768 14,15c-13.642,15.31 -27.975,29.98 -43,44c-5.705,-4.7 -10.705,-10.04 -15,-16c14.64,-14.31 29.307,-28.639 44,-43z" opacity="0.988" id="svg_326"/>
  </g>
  <g id="svg_327">
   <path fill="#fe1f8c" d="m920.94809,581c1.47,4.242 2.13,8.742 2,13.5c0,3.02 -0.34,5.85 -1,8.5c0.15,-1.05 -0.02,-2.05 -0.5,-3c-122.03,119.2 -243.867,238.53 -365.5,358c-9.9,0.05 -19.567,-1.28 -29,-4c12,-12 24,-24 36,-36c20.104,-4.05 37.771,-12.89 53,-26.5c52.906,-55.74 105.24,-111.9 157,-168.5c3.77,-2.59 7.44,-5.43 11,-8.5c45.23,-45.07 90.9,-89.57 137,-133.5z" opacity="0.991" id="svg_328"/>
  </g>
  <g id="svg_329">
   <path fill="#fd8e46" d="m684.94809,586c4.652,3.321 8.985,6.987 13,11c-9.366,9.37 -19.032,18.37 -29,27c-4.96,-3.29 -9.293,-7.29 -13,-12c2.768,-1.59 5.435,-3.42 8,-5.5c6.868,-7.04 13.868,-13.869 21,-20.5z" opacity="0.986" id="svg_330"/>
  </g>
  <g id="svg_331">
   <path fill="#fef207" d="m470.94809,592c3.972,4.31 7.972,8.64 12,13c-14.051,15.05 -28.718,29.39 -44,43c-4.376,-3.37 -8.042,-7.37 -11,-12c15.025,-14.02 29.358,-28.69 43,-44z" opacity="0.993" id="svg_332"/>
  </g>
  <g id="svg_333">
   <path fill="#abeb02" d="m338.94809,586c6.038,5.037 11.371,10.7 16,17c-15.303,13.64 -29.969,27.97 -44,43c-4.972,-5.31 -9.972,-10.64 -15,-16c-0.131,-0.74 0.036,-1.41 0.5,-2c14.673,-13.51 28.839,-27.51 42.5,-42z" opacity="0.994" id="svg_334"/>
  </g>
  <g id="svg_335">
   <path fill="#fe824e" d="m697.94809,597c4.388,3.72 9.055,7.05 14,10c-8.662,9.49 -17.828,18.49 -27.5,27c-0.464,0.59 -0.631,1.26 -0.5,2c-5.587,-3.29 -10.587,-7.29 -15,-12c9.968,-8.63 19.634,-17.63 29,-27z" opacity="0.979" id="svg_336"/>
  </g>
  <g id="svg_337">
   <path fill="#fdb32f" d="m596.94809,595c8.766,18.09 4.766,32.93 -12,44.5c-10.661,6.3 -20.661,5.46 -30,-2.5c14.333,-13.67 28.333,-27.67 42,-42z" opacity="0.982" id="svg_338"/>
  </g>
  <g id="svg_339">
   <path fill="#fe1692" d="m921.94809,603c-0.82,9.15 -4.15,17.15 -10,24c0.07,-0.44 -0.1,-0.77 -0.5,-1c-112.67,109.51 -224.838,219.51 -336.5,330c-6.282,1.08 -12.616,1.74 -19,2c121.633,-119.47 243.47,-238.8 365.5,-358c0.48,0.95 0.65,1.95 0.5,3z" opacity="0.998" id="svg_340"/>
  </g>
  <g id="svg_341">
   <path fill="#fee50f" d="m482.94809,605c4.678,4.68 9.011,9.68 13,15c-14.239,14.78 -28.906,29.12 -44,43c-4.707,-4.7 -9.04,-9.7 -13,-15c15.282,-13.61 29.949,-27.95 44,-43z" opacity="0.992" id="svg_342"/>
  </g>
  <g id="svg_343">
   <path fill="#fe685e" d="m756.94809,613c1.05,-0.15 2.05,0.02 3,0.5c-13.23,13.4 -26.56,26.56 -40,39.5c-7.532,-1.51 -14.532,-4.17 -21,-8c10.947,-9.28 21.28,-19.28 31,-30c9.16,1.52 18.16,0.85 27,-2z" opacity="0.991" id="svg_344"/>
  </g>
  <g id="svg_345">
   <path fill="#fe7455" d="m711.94809,607c5.764,3.22 11.76,5.88 18,8c-9.72,10.72 -20.053,20.72 -31,30c-5.284,-2.64 -10.284,-5.64 -15,-9c-0.131,-0.74 0.036,-1.41 0.5,-2c9.672,-8.51 18.838,-17.51 27.5,-27z" opacity="0.996" id="svg_346"/>
  </g>
  <g id="svg_347">
   <path fill="#c4f101" d="m354.94809,603c5.305,5.64 10.639,11.31 16,17c-15.025,14.02 -29.358,28.69 -43,44c-6.12,-5.58 -11.787,-11.58 -17,-18c14.031,-15.03 28.697,-29.36 44,-43z" opacity="0.993" id="svg_348"/>
  </g>
  <g id="svg_349">
   <path fill="#fed817" d="m495.94809,620c4.376,3.37 8.042,7.37 11,12c0.131,0.74 -0.036,1.41 -0.5,2c-13.732,14.23 -27.898,27.9 -42.5,41c-4.333,-3.67 -8.333,-7.67 -12,-12c15.094,-13.88 29.761,-28.22 44,-43z" opacity="0.998" id="svg_350"/>
  </g>
  <g id="svg_351">
   <path fill="#00fd00" d="m49.94809,632c15.509,2.03 20.343,10.36 14.5,25c-6.262,6.43 -13.429,7.6 -21.5,3.5c-7.581,-8.05 -7.914,-16.39 -1,-25c2.658,-1.48 5.325,-2.64 8,-3.5z" opacity="0.961" id="svg_352"/>
  </g>
  <g id="svg_353">
   <path fill="#ddf601" d="m370.94809,620c5.343,5.34 10.343,11.01 15,17c-14.364,14.36 -29.03,28.36 -44,42c-5.373,-4.37 -10.039,-9.37 -14,-15c13.642,-15.31 27.975,-29.98 43,-44z" opacity="0.988" id="svg_354"/>
  </g>
  <g id="svg_355">
   <path fill="#fd0e97" d="m911.94809,627c-1.25,2.43 -2.75,4.77 -4.5,7c-49.26,55.27 -99.26,109.93 -150,164c-35.47,39.13 -71.299,77.97 -107.5,116.5c-15.921,15.57 -34.255,27.57 -55,36c-6.602,2.15 -13.268,3.98 -20,5.5c111.662,-110.49 223.83,-220.49 336.5,-330c0.4,0.23 0.57,0.56 0.5,1z" opacity="0.992" id="svg_356"/>
  </g>
  <g id="svg_357">
   <path fill="#fc089b" d="m1154.94809,632c15.65,1.97 20.49,10.3 14.5,25c-8.33,8 -16.67,8 -25,0c-5.49,-12.4 -1.99,-20.73 10.5,-25z" opacity="0.969" id="svg_358"/>
  </g>
  <g id="svg_359">
   <path fill="#fecc1f" d="m506.94809,632c4.223,4.1 8.223,8.44 12,13c-0.086,1 0.248,1.83 1,2.5c-14.305,13.3 -28.305,26.97 -42,41c-0.594,0.46 -1.261,0.63 -2,0.5c-4.397,-4.39 -8.397,-9.06 -12,-14c14.602,-13.1 28.768,-26.77 42.5,-41c0.464,-0.59 0.631,-1.26 0.5,-2z" opacity="0.993" id="svg_360"/>
  </g>
  <g id="svg_361">
   <path fill="#f0fb00" d="m385.94809,637c4.376,3.37 8.042,7.37 11,12c-14.64,13.97 -28.973,28.31 -43,43c-4.708,-3.71 -8.708,-8.04 -12,-13c14.97,-13.64 29.636,-27.64 44,-42z" opacity="0.995" id="svg_362"/>
  </g>
  <g id="svg_363">
   <path fill="#8ee403" d="m257.94809,634c4.305,4.64 8.639,9.31 13,14c-10.354,8.35 -19.688,17.69 -28,28c-4.972,-5.31 -9.972,-10.64 -15,-16c2.432,-1.25 4.766,-2.75 7,-4.5c7.255,-7.76 14.922,-14.93 23,-21.5z" opacity="0.977" id="svg_364"/>
  </g>
  <g id="svg_365">
   <path fill="#fec027" d="m518.94809,645c4.345,4.35 8.345,9.01 12,14c0.131,0.74 -0.036,1.41 -0.5,2c-13.971,12.97 -27.638,26.3 -41,40c-0.671,-0.75 -1.504,-1.09 -2.5,-1c-4,-3.33 -7.667,-7 -11,-11c0.739,0.13 1.406,-0.04 2,-0.5c13.695,-14.03 27.695,-27.7 42,-41c-0.752,-0.67 -1.086,-1.5 -1,-2.5z" opacity="0.991" id="svg_366"/>
  </g>
  <g id="svg_367">
   <path fill="#fef803" d="m396.94809,649c5.705,4.7 10.705,10.04 15,16c-14.97,13.64 -29.636,27.64 -44,42c-5.373,-4.37 -10.039,-9.37 -14,-15c14.027,-14.69 28.36,-29.03 43,-43z" opacity="0.986" id="svg_368"/>
  </g>
  <g id="svg_369">
   <path fill="#afec02" d="m270.94809,648c8.007,8.01 15.673,16.34 23,25c-10.628,7.63 -19.961,16.63 -28,27c-8.368,-7.37 -16.035,-15.37 -23,-24c8.312,-10.31 17.646,-19.65 28,-28z" opacity="0.98" id="svg_370"/>
  </g>
  <g id="svg_371">
   <path fill="#feb22f" d="m530.94809,659c5.573,5.36 8.24,12.03 8,20c-1.486,22.66 -13.486,32.82 -36,30.5c-6.247,-1.77 -11.581,-4.94 -16,-9.5c0.996,-0.09 1.829,0.25 2.5,1c13.362,-13.7 27.029,-27.03 41,-40c0.464,-0.59 0.631,-1.26 0.5,-2z" opacity="0.988" id="svg_372"/>
  </g>
  <g id="svg_373">
   <path fill="#feeb0b" d="m411.94809,665c4.376,3.37 8.042,7.37 11,12c-13.891,14.92 -28.558,28.92 -44,42c-4.398,-3.39 -8.064,-7.39 -11,-12c14.364,-14.36 29.03,-28.36 44,-42z" opacity="0.994" id="svg_374"/>
  </g>
  <g id="svg_375">
   <path fill="#c7f101" d="m293.94809,673c4.376,3.37 8.042,7.37 11,12c-9.36,9.03 -18.693,18.03 -28,27c-4.398,-3.39 -8.064,-7.39 -11,-12c8.039,-10.37 17.372,-19.37 28,-27z" opacity="0.979" id="svg_376"/>
  </g>
  <g id="svg_377">
   <path fill="#fedf13" d="m422.94809,677c5.04,4.04 9.373,8.71 13,14c-14.004,15 -28.671,29.34 -44,43c-4.707,-4.7 -9.04,-9.7 -13,-15c15.442,-13.08 30.109,-27.08 44,-42z" opacity="0.992" id="svg_378"/>
  </g>
  <g id="svg_379">
   <path fill="#dbf501" d="m304.94809,685c6.019,5.05 11.352,10.72 16,17c-9.874,7.37 -19.041,15.7 -27.5,25c-0.483,0.95 -0.649,1.95 -0.5,3c-5.676,-5.68 -11.009,-11.68 -16,-18c9.307,-8.97 18.64,-17.97 28,-27z" opacity="0.98" id="svg_380"/>
  </g>
  <g id="svg_381">
   <path fill="#fdd21b" d="m435.94809,691c5.04,4.04 9.373,8.71 13,14c-2.432,1.25 -4.766,2.75 -7,4.5c-11.5,12.83 -23.667,25 -36.5,36.5c-0.464,0.59 -0.631,1.26 -0.5,2c-4.305,-4.64 -8.639,-9.31 -13,-14c15.329,-13.66 29.996,-28 44,-43z" opacity="0.988" id="svg_382"/>
  </g>
  <g id="svg_383">
   <path fill="#fec424" d="m448.94809,705c5.972,6.31 11.972,12.64 18,19c-15,14 -30,28 -45,42c-5.658,-5.96 -11.324,-11.96 -17,-18c-0.131,-0.74 0.036,-1.41 0.5,-2c12.833,-11.5 25,-23.67 36.5,-36.5c2.234,-1.75 4.568,-3.25 7,-4.5z" opacity="0.986" id="svg_384"/>
  </g>
  <g id="svg_385">
   <path fill="#f6fb00" d="m320.94809,702c5.972,6.31 11.972,12.64 18,19c-8.611,9.95 -17.611,19.61 -27,29c-6.306,-6.64 -12.639,-13.31 -19,-20c-0.149,-1.05 0.017,-2.05 0.5,-3c8.459,-9.3 17.626,-17.63 27.5,-25z" opacity="0.99" id="svg_386"/>
  </g>
  <g id="svg_387">
   <path fill="#feb62d" d="m466.94809,724c3.465,3.13 6.132,6.79 8,11c0.131,0.74 -0.036,1.41 -0.5,2c-13.369,13.2 -26.535,26.53 -39.5,40c-5.219,-2.55 -9.552,-6.21 -13,-11c15,-14 30,-28 45,-42z" opacity="0.993" id="svg_388"/>
  </g>
  <g id="svg_389">
   <path fill="#fdf207" d="m338.94809,721c3.972,4.31 7.972,8.64 12,13c-9,9.67 -18.333,19 -28,28c-3.657,-3.96 -7.324,-7.96 -11,-12c9.389,-9.39 18.389,-19.05 27,-29z" opacity="0.991" id="svg_390"/>
  </g>
  <g id="svg_391">
   <path fill="#feaa34" d="m474.94809,735c7.067,15.58 4.067,29.08 -9,40.5c-7.29,5.05 -15.29,6.72 -24,5c-2.674,-0.67 -5.007,-1.84 -7,-3.5c12.965,-13.47 26.131,-26.8 39.5,-40c0.464,-0.59 0.631,-1.26 0.5,-2z" opacity="0.992" id="svg_392"/>
  </g>
  <g id="svg_393">
   <path fill="#fee50f" d="m350.94809,734c4.305,4.64 8.639,9.31 13,14c-8.312,10.31 -17.646,19.65 -28,28c-4.305,-4.64 -8.639,-9.31 -13,-14c9.667,-9 19,-18.33 28,-28z" opacity="0.987" id="svg_394"/>
  </g>
  <g id="svg_395">
   <path fill="#fdd817" d="m363.94809,748c3.972,4.31 7.972,8.64 12,13c-9,9.67 -18.333,19 -28,28c-3.972,-4.31 -7.972,-8.64 -12,-13c10.354,-8.35 19.688,-17.69 28,-28z" opacity="0.995" id="svg_396"/>
  </g>
  <g id="svg_397">
   <path fill="#fdcc1f" d="m375.94809,761c4.305,4.64 8.639,9.31 13,14c-9.027,9.69 -18.36,19.03 -28,28c-4.305,-4.64 -8.639,-9.31 -13,-14c9.667,-9 19,-18.33 28,-28z" opacity="0.994" id="svg_398"/>
  </g>
  <g id="svg_399">
   <path fill="#fdbf26" d="m388.94809,775c3.972,4.31 7.972,8.64 12,13c-9.392,9.4 -19.058,18.4 -29,27c-3.638,-3.97 -7.305,-7.97 -11,-12c9.64,-8.97 18.973,-18.31 28,-28z" opacity="0.99" id="svg_400"/>
  </g>
  <g id="svg_401">
   <path fill="#feb42e" d="m400.94809,788c3.305,3.64 6.638,7.31 10,11c-8.758,10.1 -18.424,19.1 -29,27c-3.333,-3.67 -6.667,-7.33 -10,-11c9.942,-8.6 19.608,-17.6 29,-27z" opacity="0.98" id="svg_402"/>
  </g>
  <g id="svg_403">
   <path fill="#fda636" d="m410.94809,799c4.972,5.31 9.972,10.64 15,16c-10.354,8.35 -19.688,17.69 -28,28c-5.305,-5.64 -10.639,-11.31 -16,-17c10.576,-7.9 20.242,-16.9 29,-27z" opacity="0.992" id="svg_404"/>
  </g>
  <g id="svg_405">
   <path fill="#fd9a3e" d="m425.94809,815c3.638,3.97 7.305,7.97 11,12c-9,9.67 -18.333,19 -28,28c-3.638,-3.97 -7.305,-7.97 -11,-12c8.312,-10.31 17.646,-19.65 28,-28z" opacity="0.986" id="svg_406"/>
  </g>
  <g id="svg_407">
   <path fill="#fe8d46" d="m436.94809,827c4.324,4.63 8.657,9.29 13,14c0.131,0.74 -0.036,1.41 -0.5,2c-8.734,9.24 -17.9,17.9 -27.5,26c-4.305,-4.64 -8.639,-9.31 -13,-14c9.667,-9 19,-18.33 28,-28z" opacity="0.976" id="svg_408"/>
  </g>
  <g id="svg_409">
   <path fill="#fe814e" d="m449.94809,841c4.123,3.58 7.79,7.58 11,12c-9.333,9 -18.667,18 -28,27c-4,-3.33 -7.667,-7 -11,-11c9.6,-8.1 18.766,-16.76 27.5,-26c0.464,-0.59 0.631,-1.26 0.5,-2z" opacity="0.978" id="svg_410"/>
  </g>
  <g id="svg_411">
   <path fill="#fe7555" d="m460.94809,853c4.708,3.71 8.708,8.04 12,13c-8.72,9.72 -18.053,18.72 -28,27c-4.708,-3.71 -8.708,-8.04 -12,-13c9.333,-9 18.667,-18 28,-27z" opacity="0.999" id="svg_412"/>
  </g>
  <g id="svg_413">
   <path fill="#fe685e" d="m472.94809,866c5.04,4.04 9.373,8.71 13,14c-8.039,10.37 -17.372,19.37 -28,27c-5.04,-4.04 -9.373,-8.71 -13,-14c9.947,-8.28 19.28,-17.28 28,-27z" opacity="0.985" id="svg_414"/>
  </g>
  <g id="svg_415">
   <path fill="#fc5b65" d="m485.94809,880c4.667,4 9,8.33 13,13c-9.366,9.37 -19.032,18.37 -29,27c-4.708,-3.71 -8.708,-8.04 -12,-13c10.628,-7.63 19.961,-16.63 28,-27z" opacity="0.991" id="svg_416"/>
  </g>
  <g id="svg_417">
   <path fill="#fe4f6d" d="m498.94809,893c4.065,4.07 8.398,7.74 13,11c-9.333,9.33 -18.667,18.67 -28,28c-5.079,-3.54 -9.746,-7.54 -14,-12c9.968,-8.63 19.634,-17.63 29,-27z" opacity="0.981" id="svg_418"/>
  </g>
  <g id="svg_419">
   <path fill="#fd4375" d="m511.94809,904c4.873,2.94 9.873,5.6 15,8c0.131,0.74 -0.036,1.41 -0.5,2c-9.395,9.56 -18.895,18.9 -28.5,28c-5.057,-2.85 -9.723,-6.19 -14,-10c9.333,-9.33 18.667,-18.67 28,-28z" opacity="0.987" id="svg_420"/>
  </g>
  <g id="svg_421">
   <path fill="#fe3280" d="m526.94809,912c11.441,5.02 23.441,7.02 36,6c-12,12 -24,24 -36,36c-10.341,-2.44 -20.007,-6.44 -29,-12c9.605,-9.1 19.105,-18.44 28.5,-28c0.464,-0.59 0.631,-1.26 0.5,-2z" opacity="0.971" id="svg_422"/>
  </g>
 </g>
</svg>