<!-- icon666.com - MILLIONS vector ICONS FREE --><svg id="Layer_1" viewBox="0 0 64 64" xmlns="http://www.w3.org/2000/svg" data-name="Layer 1"><path d="m16.51 49.18a19.5 19.5 0 0 0 -4 11.31 19.4 19.4 0 0 0 14.07-6.58 14.7 14.7 0 0 1 -1.58-2.45 20.69 20.69 0 0 1 -8.49-2.28z" fill="#c2d952"></path><path d="m23.63 47a14.89 14.89 0 0 1 .05-4.22 19.55 19.55 0 0 0 -3.89-5.57 19.37 19.37 0 0 0 -13.28-5.7 19.36 19.36 0 0 0 18 18.91 14.08 14.08 0 0 1 -.88-3.42z" fill="#a1cd43"></path><path d="m38 35.5a9.49 9.49 0 0 0 -7.78 4.06 5.13 5.13 0 0 1 2.35 1 4.07 4.07 0 0 0 5.13 0 5.08 5.08 0 0 1 6.29 0 3.86 3.86 0 0 0 2.57.91h.26a9.51 9.51 0 0 0 -8.82-5.97z" fill="#e0ecb7"></path><path d="m43.41 41.41a4.07 4.07 0 0 0 -5.13 0 5.08 5.08 0 0 1 -6.29 0 3.85 3.85 0 0 0 -2.36-.9 9.5 9.5 0 1 0 17.87 4.49 9.6 9.6 0 0 0 -.35-2.53 5.54 5.54 0 0 1 -.59 0 4.9 4.9 0 0 1 -3.15-1.06z" fill="#e3ab4a"></path><path d="m40 8.5a4.23 4.23 0 0 1 .5.05v-3.55a2.5 2.5 0 0 0 -5 0v3.55a4.23 4.23 0 0 1 .5-.05z" fill="#e0ecb7"></path><path d="m40 9.5h-4a3.5 3.5 0 0 0 -3.46 3h10.92a3.5 3.5 0 0 0 -3.46-3z" fill="#e3ab4a"></path><path d="m48 21.5a9.56 9.56 0 0 0 -4.5 1.15v3.68a6.48 6.48 0 1 1 6.64 10.78 13.83 13.83 0 0 1 1.38 2.71 9.5 9.5 0 0 0 -3.52-18.32z" fill="#e0ecb7"></path><path d="m46.53 34.55a10.68 10.68 0 0 1 -4-8.26v-12.79h-9v12.79a10.72 10.72 0 0 1 -4 8.27 13.46 13.46 0 0 0 -1 20 9.75 9.75 0 0 1 3 6.91h13a9.73 9.73 0 0 1 3-6.91 13.48 13.48 0 0 0 -1-20zm-8.53 20.95a10.5 10.5 0 1 1 10.5-10.5 10.51 10.51 0 0 1 -10.5 10.5z" fill="#5b7fad"></path><path d="m59 31a11 11 0 0 0 -15-10.23v-6.77a1 1 0 0 0 1-1 5 5 0 0 0 -3-4.58v-3.42a4 4 0 0 0 -8 0v3.42a5 5 0 0 0 -3 4.58 1 1 0 0 0 1 1v12.29a9.18 9.18 0 0 1 -3.48 7.1 14.91 14.91 0 0 0 -4.66 6.61 21 21 0 0 0 -3-3.85 20.9 20.9 0 0 0 -14.86-6.15 1 1 0 0 0 -1 1 20.9 20.9 0 0 0 9.9 17.84 21.1 21.1 0 0 0 -3.9 12.16 1 1 0 0 0 1 1 20.94 20.94 0 0 0 15.25-6.57l.19.21a8.26 8.26 0 0 1 2.56 5.85v.51a1 1 0 0 0 1 1h14a1 1 0 0 0 1-1v-.5a8.26 8.26 0 0 1 2.56-5.85 14.84 14.84 0 0 0 3.89-14.59 11 11 0 0 0 6.55-10.06zm-23-26a2 2 0 0 1 2-2 2 2 0 0 1 2 2v3h-4zm0 5h4a3 3 0 0 1 2.83 2h-9.66a3 3 0 0 1 2.83-2zm-29 22a19 19 0 0 1 16.16 10.86 15.21 15.21 0 0 0 0 4.21 14.92 14.92 0 0 0 .67 2.79 18.86 18.86 0 0 1 -16.83-17.86zm6 28a18.71 18.71 0 0 1 3.63-10.16 20.82 20.82 0 0 0 8.05 2.12 15.08 15.08 0 0 0 1.21 2 18.86 18.86 0 0 1 -12.89 6.04zm34.12-5.74a10.34 10.34 0 0 0 -3.12 6.74h-12a10.29 10.29 0 0 0 -3.14-6.78 13 13 0 0 1 .93-19.28 11.18 11.18 0 0 0 4.21-8.65v-12.29h8v12.29a11.17 11.17 0 0 0 4.21 8.65 13 13 0 0 1 .94 19.29zm-3-26.4a5 5 0 0 1 8.88 3.14 5 5 0 0 1 -3.27 4.67 14.33 14.33 0 0 0 -2.26-2.28 9.33 9.33 0 0 1 -3.32-5.56zm7.64 11.33a13.74 13.74 0 0 0 -.9-1.8 7 7 0 1 0 -6.86-12.13v-2.26a9 9 0 1 1 7.79 16.2z"></path><path d="m38 34a11 11 0 1 0 11 11 11 11 0 0 0 -11-11zm8.77 9a9.52 9.52 0 0 1 .23 2 9 9 0 1 1 -17.07-4 3.71 3.71 0 0 1 1.78.78 5.56 5.56 0 0 0 6.85 0 3.44 3.44 0 0 1 2.29-.78 3.37 3.37 0 0 1 2.28.82 5.39 5.39 0 0 0 3.43 1.18zm-2.5-2.81a5.33 5.33 0 0 0 -3.42-1.19 5.39 5.39 0 0 0 -3.43 1.18 3.37 3.37 0 0 1 -2.28.82 3.44 3.44 0 0 1 -2.29-.82 6 6 0 0 0 -1.76-.94 9 9 0 0 1 14.91 1.76 3.63 3.63 0 0 1 -1.73-.82z"></path></svg>